<svg xmlns="http://www.w3.org/2000/svg" class="interactive-avatar__canvas" viewBox="0 0 420 420" aria-hidden="true" focusable="false" width="512" height="512"><defs><clipPath id="oneworks-avatar-export-frame"><path d="M 0 0 H 420 V 420 H 0 Z"/></clipPath></defs><g clip-path="url(#oneworks-avatar-export-frame)"><path d="M 0 0 H 420 V 420 H 0 Z" fill="transparent"/><g><defs><clipPath id="r0-clip"><path d=""/></clipPath><filter id="r0-face-shadow-blur" x="-50%" y="-50%" width="200%" height="200%"><feGaussianBlur stdDeviation="0"/></filter><filter id="r0-avatar-shadow" x="-100%" y="-100%" width="300%" height="300%"><feDropShadow dx="-6.691306063588582" dy="7.431448254773942" stdDeviation="7" flood-color="#7c3140" flood-opacity="0.28"/></filter></defs><g transform="translate(0 17) translate(210 210) rotate(0) scale(1.34) translate(-210 -210)"><g data-avatar-entity-fragment-root="true" data-avatar-entity-preset="cat" data-avatar-fragment-composition="compiled-owner-partition" data-avatar-fragment-build-count="34" data-avatar-fragment-build-ms="67.400" data-avatar-fragment-compile-count="3" data-avatar-fragment-compile-ms="339.600" data-avatar-fragment-drag-build-max-ms="0.000" data-avatar-fragment-drag-build-mean-ms="0.000" data-avatar-fragment-drag-build-p95-ms="0.000" data-avatar-fragment-drag-build-samples="0" data-avatar-fragment-quality="full" data-avatar-fragment-raster-size="420" data-avatar-fragment-revision="{&quot;groups&quot;:[{&quot;id&quot;:&quot;anatomy-cat-ear-left&quot;,&quot;primitiveIds&quot;:[&quot;cat-ear-left&quot;],&quot;resolution&quot;:28},{&quot;id&quot;:&quot;anatomy-cat-ear-right&quot;,&quot;primitiveIds&quot;:[&quot;cat-ear-right&quot;],&quot;resolution&quot;:28},{&quot;id&quot;:&quot;anatomy-cat-head&quot;,&quot;primitiveIds&quot;:[&quot;cat-head&quot;],&quot;resolution&quot;:28}],&quot;id&quot;:&quot;production-cat&quot;,&quot;primitives&quot;:[{&quot;id&quot;:&quot;cat-ear-left&quot;,&quot;materialId&quot;:&quot;cat-ear-left&quot;,&quot;position&quot;:{&quot;x&quot;:-57.120000000000005,&quot;y&quot;:-84,&quot;z&quot;:-8},&quot;productionShape&quot;:&quot;cone&quot;,&quot;roundness&quot;:48,&quot;rotation&quot;:{&quot;x&quot;:-0.12217304763960307,&quot;y&quot;:-0.22689280275926285,&quot;z&quot;:-0.15707963267948966},&quot;scale&quot;:{&quot;x&quot;:38.03039999999999,&quot;y&quot;:50.65902815999999,&quot;z&quot;:33.926399999999994},&quot;shape&quot;:&quot;cone&quot;},{&quot;id&quot;:&quot;cat-ear-right&quot;,&quot;materialId&quot;:&quot;cat-ear-right&quot;,&quot;position&quot;:{&quot;x&quot;:57.120000000000005,&quot;y&quot;:-84,&quot;z&quot;:-10},&quot;productionShape&quot;:&quot;cone&quot;,&quot;roundness&quot;:52,&quot;rotation&quot;:{&quot;x&quot;:-0.10471975511965977,&quot;y&quot;:0.22689280275926285,&quot;z&quot;:0.15707963267948966},&quot;scale&quot;:{&quot;x&quot;:36.4458,&quot;y&quot;:48.912165120000004,&quot;z&quot;:32.5128},&quot;shape&quot;:&quot;cone&quot;},{&quot;id&quot;:&quot;cat-head&quot;,&quot;materialId&quot;:&quot;cat-head&quot;,&quot;position&quot;:{&quot;x&quot;:0,&quot;y&quot;:12,&quot;z&quot;:0},&quot;productionShape&quot;:&quot;ellipse&quot;,&quot;rotation&quot;:{&quot;x&quot;:0,&quot;y&quot;:0,&quot;z&quot;:0},&quot;scale&quot;:{&quot;x&quot;:111.69,&quot;y&quot;:80.24000000000001,&quot;z&quot;:82.96000000000001},&quot;shape&quot;:&quot;ellipse&quot;}],&quot;resolution&quot;:28,&quot;smoothUnionPairs&quot;:[],&quot;smoothUnionRadius&quot;:0}:420:-0.131650:0.000000" data-avatar-fragment-release-build-ms="0.000" data-avatar-fragment-settle-build-ms="0.000" data-avatar-fragment-path-characters="51401" data-avatar-fragment-path-serialization-ms="0.000" data-avatar-fragment-candidate-tests="144075" data-avatar-fragment-contour-ms="12.600" data-avatar-fragment-curve-segments="1586" data-avatar-fragment-contour-segments="1448" data-avatar-fragment-depth-owner-ms="52.900" data-avatar-fragment-line-segments="0" data-avatar-fragment-max-curve-error="0.125" data-avatar-fragment-shared-curve-reuse="130" data-avatar-fragment-null-owner-pixels="0" data-avatar-fragment-transform-ms="0.100"><defs><filter id="r0-entity-face-shadow" x="-50%" y="-50%" width="200%" height="200%"><feGaussianBlur stdDeviation="0"/></filter><filter id="r0-entity-outline" x="-30%" y="-30%" width="160%" height="160%"><feMorphology in="SourceAlpha" operator="dilate" radius="3" result="expanded"/><feFlood flood-color="#f5efe6" flood-opacity="1"/><feComposite in2="expanded" operator="in"/><feMerge><feMergeNode/><feMergeNode in="SourceGraphic"/></feMerge></filter><clipPath id="r0-compiled-owner-0" clipPathUnits="userSpaceOnUse"><path d="M188.17 135.52Q186.08 135.57 184.00 135.68Q183.49 135.67 183.00 135.84Q182.29 136.05 181.74 136.54Q180.37 136.61 179.00 136.70Q178.44 136.76 178.00 137.12Q177.65 137.18 177.50 137.50Q176.72 137.64 176.00 137.97Q175.64 138.02 175.47 138.34Q175.33 138.71 174.97 138.87Q174.51 139.13 174.00 139.07Q173.50 138.89 173.00 139.04Q172.66 139.05 172.47 139.34Q172.33 139.70 171.97 139.82Q171.10 140.16 170.17 140.19Q169.88 140.34 169.67 140.57Q168.83 140.68 168.00 140.82Q167.55 140.88 167.24 141.21Q167.04 141.46 166.74 141.61Q166.39 141.79 166.00 141.89Q163.64 142.69 161.26 143.45Q160.63 143.69 160.00 143.92Q158.87 144.36 157.67 144.57Q156.86 144.93 156.00 145.17Q155.27 145.34 154.54 145.52Q152.40 146.41 150.29 147.40Q149.06 148.12 147.74 148.64Q147.40 148.86 147.00 148.78Q146.53 148.81 146.18 149.14Q145.88 149.32 145.68 149.61Q145.36 149.77 145.00 149.73Q144.49 149.78 144.10 150.12Q143.75 150.22 143.60 150.56Q143.31 150.66 143.00 150.66Q142.45 150.69 142.00 151.02Q141.62 151.09 141.43 151.43Q140.71 151.62 140.00 151.81Q139.28 152.05 138.73 152.57Q138.37 152.64 138.00 152.72Q137.50 152.79 137.15 153.15Q136.26 153.73 135.57 154.55Q135.29 154.62 135.00 154.63Q134.47 154.71 134.08 155.08Q133.21 155.69 132.55 156.54Q132.28 156.59 132.00 156.59Q131.46 156.68 131.05 157.05Q130.18 157.67 129.53 158.53Q129.12 158.54 128.83 158.85C128.91 158.58 129.02 158.33 129.05 158.05C129.65 152.71 130.10 147.36 130.71 142.02C131.55 134.72 132.46 127.42 133.40 120.12C134.52 111.42 135.73 102.70 137.45 94.09C138.33 89.74 139.42 85.44 140.43 81.11C141.00 78.65 141.48 75.87 142.67 73.58C142.83 73.26 143.28 72.81 143.54 72.58C143.60 72.54 143.70 72.54 143.75 72.48C144.10 72.01 144.25 71.35 144.73 71.01C146.09 70.05 147.58 72.01 148.21 72.74C149.14 73.82 149.98 74.98 150.90 76.08C151.20 76.44 151.55 76.76 151.85 77.12C152.99 78.48 154.14 79.83 155.21 81.24C156.30 82.66 157.31 84.14 158.33 85.62C161.82 90.68 164.89 95.99 168.09 101.24C174.75 112.17 172.30 107.69 179.12 119.72C181.38 123.71 185.28 131.02 187.73 135.15C187.83 135.31 188.02 135.40 188.17 135.52Z" transform="scale(1)"/></clipPath><clipPath id="r0-compiled-owner-1" clipPathUnits="userSpaceOnUse"><path d="M295.17 161.85Q294.88 161.54 294.47 161.53Q293.81 160.68 292.93 160.07Q292.53 159.70 292.00 159.62Q291.72 159.61 291.44 159.54Q290.78 158.70 289.90 158.10Q289.51 157.78 289.00 157.77Q288.61 157.88 288.27 157.67Q287.90 157.03 287.29 156.60Q287.03 156.41 286.79 156.21Q286.45 155.91 286.00 155.90Q285.56 155.95 285.20 155.69Q284.84 155.55 284.70 155.18Q284.43 154.83 284.00 154.74Q283.70 154.65 283.39 154.56Q282.42 154.06 281.46 153.53Q276.22 151.35 271.00 149.12Q267.05 147.41 263.12 145.65Q260.56 144.85 258.00 144.03Q254.98 143.04 252.00 141.95Q251.00 141.58 250.00 141.19Q248.11 140.45 246.27 139.61Q245.64 139.39 245.00 139.19Q243.52 138.52 242.00 137.93Q241.63 137.83 241.31 137.62Q241.09 137.34 240.81 137.14Q240.48 136.78 240.00 136.71Q239.18 136.62 238.37 136.55Q238.21 136.24 237.87 136.13Q237.51 135.77 237.00 135.69Q236.42 135.59 235.83 135.53C235.97 135.40 236.16 135.30 236.25 135.13C238.88 130.20 241.27 125.14 243.88 120.20C249.98 108.66 256.21 97.16 263.33 86.22C264.11 85.02 264.90 83.83 265.72 82.66C267.87 79.60 268.35 78.88 270.50 76.42C271.10 75.72 271.71 75.01 272.36 74.35C272.56 74.15 272.76 73.91 273.04 73.84C273.84 73.64 274.69 73.67 275.51 73.57C275.73 73.54 275.94 73.51 276.15 73.45C276.44 73.37 276.72 73.04 276.99 73.16C277.37 73.34 277.51 73.83 277.74 74.19C278.35 75.16 279.39 77.81 279.56 78.20C280.04 79.37 280.58 81.24 280.84 82.20C282.55 88.42 281.79 86.21 283.36 93.04C284.14 96.42 285.08 99.74 285.74 103.16C287.73 113.47 286.66 108.32 288.30 118.03C289.96 127.89 288.82 120.14 290.34 130.02C291.46 137.30 291.25 136.60 292.41 145.01C292.77 147.70 293.19 150.38 293.55 153.06C293.91 155.75 294.09 158.45 294.58 161.12C294.64 161.42 294.97 161.61 295.17 161.85Z" transform="scale(1)"/></clipPath><clipPath id="r0-compiled-owner-2" clipPathUnits="userSpaceOnUse"><path d="M235.83 135.53Q236.42 135.59 237.00 135.69Q237.51 135.77 237.87 136.13Q238.21 136.24 238.37 136.55Q239.18 136.62 240.00 136.71Q240.48 136.78 240.81 137.14Q241.09 137.34 241.31 137.62Q241.63 137.83 242.00 137.93Q243.52 138.52 245.00 139.19Q245.64 139.39 246.27 139.61Q248.11 140.45 250.00 141.19Q251.00 141.58 252.00 141.95Q254.98 143.04 258.00 144.03Q260.56 144.85 263.12 145.65Q267.05 147.41 271.00 149.12Q276.22 151.35 281.46 153.53Q282.42 154.06 283.39 154.56Q283.70 154.65 284.00 154.74Q284.43 154.83 284.70 155.18Q284.84 155.55 285.20 155.69Q285.56 155.95 286.00 155.90Q286.45 155.91 286.79 156.21Q287.03 156.41 287.29 156.60Q287.90 157.03 288.27 157.67Q288.61 157.88 289.00 157.77Q289.51 157.78 289.90 158.10Q290.78 158.70 291.44 159.54Q291.72 159.61 292.00 159.62Q292.53 159.70 292.93 160.07Q293.81 160.68 294.47 161.53Q294.88 161.54 295.17 161.85C295.23 162.12 295.17 162.45 295.36 162.65C303.60 171.18 302.05 167.70 309.20 177.68C313.12 183.14 314.83 187.19 317.44 193.25C317.58 193.56 317.68 193.88 317.77 194.21C318.46 196.54 319.15 198.87 319.80 201.20C319.88 201.49 319.94 201.78 319.98 202.08C320.34 204.41 320.68 206.74 321.01 209.07C321.05 209.38 321.08 209.69 321.08 210.00C321.17 215.30 321.37 220.67 320.00 225.86C319.39 228.21 318.74 230.55 318.09 232.89C317.99 233.23 317.88 233.57 317.75 233.89C316.81 236.18 315.82 238.45 314.85 240.72C314.71 241.04 314.59 241.36 314.42 241.66C312.85 244.35 311.39 247.13 309.62 249.70C303.07 259.17 294.39 267.26 284.69 273.44C280.10 276.36 275.37 279.11 270.40 281.33C265.07 283.71 259.41 285.28 253.90 287.21C253.23 287.44 252.46 287.31 251.81 287.58C250.51 288.12 249.29 288.85 247.97 289.34C247.29 289.59 246.56 289.67 245.85 289.78C243.87 290.09 241.87 290.29 239.88 290.58C239.04 290.71 238.82 290.88 238.00 290.90C236.33 290.92 234.67 290.84 233.00 290.90C231.99 290.93 231.01 291.33 230.00 291.36C228.33 291.42 226.66 291.20 225.00 291.36C224.95 291.37 222.69 292.20 222.00 292.22C220.50 292.27 219.00 292.11 217.50 292.22C217.22 292.24 217.00 292.48 216.76 292.62C216.13 293.01 215.53 293.45 214.89 293.83C214.61 293.99 214.33 294.23 214.00 294.24C210.34 294.37 206.64 294.70 203.00 294.24C201.25 294.02 199.83 292.60 198.10 292.25C196.44 291.91 194.69 292.41 193.00 292.22C191.97 292.11 191.03 291.47 190.00 291.36C188.02 291.16 186.02 291.45 184.04 291.32C183.05 291.25 182.08 290.93 181.10 290.79C180.24 290.66 173.88 290.02 172.02 289.38C164.51 286.81 156.89 284.47 149.62 281.29C144.57 279.09 139.81 276.23 135.17 273.28C122.93 265.49 112.26 254.60 105.59 241.65C104.30 239.15 103.34 236.49 102.25 233.89C102.12 233.57 102.01 233.23 101.92 232.89C100.45 227.69 98.85 222.48 98.86 217.00C98.86 211.72 98.75 206.37 100.20 201.20C100.85 198.87 101.54 196.54 102.23 194.21C102.32 193.89 102.43 193.56 102.56 193.25C103.59 190.86 104.66 188.48 105.73 186.10C108.37 180.29 113.21 174.09 117.48 169.50C120.05 166.74 122.88 164.22 125.69 161.70C126.58 160.91 127.70 160.41 128.58 159.61C128.78 159.43 128.75 159.10 128.83 158.85Q129.12 158.54 129.53 158.53Q130.18 157.67 131.05 157.05Q131.46 156.68 132.00 156.59Q132.28 156.59 132.55 156.54Q133.21 155.69 134.08 155.08Q134.47 154.71 135.00 154.63Q135.29 154.62 135.57 154.55Q136.26 153.73 137.15 153.15Q137.50 152.79 138.00 152.72Q138.37 152.64 138.73 152.57Q139.28 152.05 140.00 151.81Q140.71 151.62 141.43 151.43Q141.62 151.09 142.00 151.02Q142.45 150.69 143.00 150.66Q143.31 150.66 143.60 150.56Q143.75 150.22 144.10 150.12Q144.49 149.78 145.00 149.73Q145.36 149.77 145.68 149.61Q145.88 149.32 146.18 149.14Q146.53 148.81 147.00 148.78Q147.40 148.86 147.74 148.64Q149.06 148.12 150.29 147.40Q152.40 146.41 154.54 145.52Q155.27 145.34 156.00 145.17Q156.86 144.93 157.67 144.57Q158.87 144.36 160.00 143.92Q160.63 143.69 161.26 143.45Q163.64 142.69 166.00 141.89Q166.39 141.79 166.74 141.61Q167.04 141.46 167.24 141.21Q167.55 140.88 168.00 140.82Q168.83 140.68 169.67 140.57Q169.88 140.34 170.17 140.19Q171.10 140.16 171.97 139.82Q172.33 139.70 172.47 139.34Q172.66 139.05 173.00 139.04Q173.50 138.89 174.00 139.07Q174.51 139.13 174.97 138.87Q175.33 138.71 175.47 138.34Q175.64 138.02 176.00 137.97Q176.72 137.64 177.50 137.50Q177.65 137.18 178.00 137.12Q178.44 136.76 179.00 136.70Q180.37 136.61 181.74 136.54Q182.29 136.05 183.00 135.84Q183.49 135.67 184.00 135.68Q186.08 135.57 188.17 135.52C188.50 135.70 188.79 136.03 189.17 136.05C190.66 136.16 194.03 136.44 196.11 135.75C196.46 135.63 196.77 135.40 197.13 135.31C197.41 135.23 197.71 135.23 198.00 135.23C199.33 135.21 200.67 135.30 202.00 135.23C203.47 135.15 203.75 134.50 205.20 133.88C205.45 133.77 205.73 133.76 206.00 133.76C209.67 133.72 213.33 133.75 217.00 133.76C217.30 133.76 217.61 133.71 217.89 133.79C218.90 134.09 219.86 134.55 220.85 134.89C221.23 135.02 221.60 135.21 222.00 135.23C223.66 135.32 225.34 135.08 227.00 135.23C227.99 135.32 228.92 135.76 229.89 135.95C230.25 136.02 230.63 136.01 231.00 136.01C235.22 136.07 233.87 136.66 235.83 135.53Z" transform="scale(1)"/></clipPath><clipPath id="r0-entity-eye-0-highlight-clip"><path d="M 181.371 198.545 L 181.471 199.678 L 181.214 200.868 L 180.605 202.085 L 179.662 203.301 L 178.407 204.484 L 176.872 205.607 L 175.097 206.640 L 173.125 207.560 L 171.006 208.342 L 168.792 208.968 L 166.537 209.423 L 164.298 209.695 L 162.128 209.777 L 160.080 209.668 L 158.204 209.370 L 156.545 208.891 L 155.144 208.242 L 154.032 207.439 L 153.239 206.502 L 152.782 205.455 L 152.673 204.322 L 152.916 203.132 L 153.503 201.915 L 154.423 200.699 L 155.654 199.516 L 157.165 198.393 L 158.921 197.360 L 160.879 196.440 L 162.991 195.658 L 165.206 195.032 L 167.469 194.577 L 169.724 194.305 L 171.914 194.223 L 173.986 194.332 L 175.886 194.630 L 177.568 195.109 L 178.989 195.758 L 180.114 196.561 L 180.915 197.498 Z"/></clipPath><clipPath id="r0-entity-eye-1-highlight-clip"><path d="M 247.405 205.455 L 246.921 206.502 L 246.070 207.439 L 244.874 208.242 L 243.363 208.891 L 241.575 209.370 L 239.555 209.668 L 237.353 209.777 L 235.026 209.695 L 232.630 209.423 L 230.225 208.968 L 227.872 208.342 L 225.626 207.560 L 223.545 206.640 L 221.677 205.607 L 220.070 204.484 L 218.760 203.301 L 217.781 202.085 L 217.154 200.868 L 216.895 199.678 L 217.010 198.545 L 217.496 197.498 L 218.340 196.561 L 219.522 195.758 L 221.014 195.109 L 222.779 194.630 L 224.774 194.332 L 226.952 194.223 L 229.259 194.305 L 231.640 194.577 L 234.036 195.032 L 236.389 195.658 L 238.641 196.440 L 240.736 197.360 L 242.623 198.393 L 244.254 199.516 L 245.588 200.699 L 246.591 201.915 L 247.238 203.132 L 247.512 204.322 Z"/></clipPath></defs><g filter="url(#r0-entity-outline)"><g data-avatar-entity-part="cat-ear-left" data-avatar-fragment-interaction-area="2632" data-avatar-fragment-interaction-ratio="1" data-avatar-fragment-raw-visible-area="2632" data-avatar-fragment-visible-area="2632" data-avatar-part-geometry="compiled-owner"><g data-avatar-compiled-base-layer="cat-ear-left"><path data-avatar-compiled-base="cat-ear-left" d="M188.17 135.52Q186.08 135.57 184.00 135.68Q183.49 135.67 183.00 135.84Q182.29 136.05 181.74 136.54Q180.37 136.61 179.00 136.70Q178.44 136.76 178.00 137.12Q177.65 137.18 177.50 137.50Q176.72 137.64 176.00 137.97Q175.64 138.02 175.47 138.34Q175.33 138.71 174.97 138.87Q174.51 139.13 174.00 139.07Q173.50 138.89 173.00 139.04Q172.66 139.05 172.47 139.34Q172.33 139.70 171.97 139.82Q171.10 140.16 170.17 140.19Q169.88 140.34 169.67 140.57Q168.83 140.68 168.00 140.82Q167.55 140.88 167.24 141.21Q167.04 141.46 166.74 141.61Q166.39 141.79 166.00 141.89Q163.64 142.69 161.26 143.45Q160.63 143.69 160.00 143.92Q158.87 144.36 157.67 144.57Q156.86 144.93 156.00 145.17Q155.27 145.34 154.54 145.52Q152.40 146.41 150.29 147.40Q149.06 148.12 147.74 148.64Q147.40 148.86 147.00 148.78Q146.53 148.81 146.18 149.14Q145.88 149.32 145.68 149.61Q145.36 149.77 145.00 149.73Q144.49 149.78 144.10 150.12Q143.75 150.22 143.60 150.56Q143.31 150.66 143.00 150.66Q142.45 150.69 142.00 151.02Q141.62 151.09 141.43 151.43Q140.71 151.62 140.00 151.81Q139.28 152.05 138.73 152.57Q138.37 152.64 138.00 152.72Q137.50 152.79 137.15 153.15Q136.26 153.73 135.57 154.55Q135.29 154.62 135.00 154.63Q134.47 154.71 134.08 155.08Q133.21 155.69 132.55 156.54Q132.28 156.59 132.00 156.59Q131.46 156.68 131.05 157.05Q130.18 157.67 129.53 158.53Q129.12 158.54 128.83 158.85C128.91 158.58 129.02 158.33 129.05 158.05C129.65 152.71 130.10 147.36 130.71 142.02C131.55 134.72 132.46 127.42 133.40 120.12C134.52 111.42 135.73 102.70 137.45 94.09C138.33 89.74 139.42 85.44 140.43 81.11C141.00 78.65 141.48 75.87 142.67 73.58C142.83 73.26 143.28 72.81 143.54 72.58C143.60 72.54 143.70 72.54 143.75 72.48C144.10 72.01 144.25 71.35 144.73 71.01C146.09 70.05 147.58 72.01 148.21 72.74C149.14 73.82 149.98 74.98 150.90 76.08C151.20 76.44 151.55 76.76 151.85 77.12C152.99 78.48 154.14 79.83 155.21 81.24C156.30 82.66 157.31 84.14 158.33 85.62C161.82 90.68 164.89 95.99 168.09 101.24C174.75 112.17 172.30 107.69 179.12 119.72C181.38 123.71 185.28 131.02 187.73 135.15C187.83 135.31 188.02 135.40 188.17 135.52Z" fill="#151515" transform="scale(1)"/></g><g data-avatar-compiled-surface-layer="cat-ear-left" clip-path="url(#r0-compiled-owner-0)"><g transform="translate(-55.57555415015247 -84)"><g><path data-avatar-compiled-surface-marking="stinky-ear-inner-left" data-avatar-surface-decal="stinky-ear-inner-left" data-avatar-surface-decal-renderer="compiled" d="M138.99 130.27C139.12 128.99 139.09 127.69 139.37 126.44C139.86 124.27 140.83 122.50 142.48 121.01C147.08 116.83 155.78 117.61 158.96 123.21C160.86 126.54 160.44 130.37 160.02 133.99C159.58 137.70 158.76 141.37 157.72 144.96C156.90 147.77 155.96 150.62 154.69 153.27C154.42 153.83 154.14 154.39 153.79 154.92C153.58 155.26 153.21 155.49 153.02 155.84C152.89 156.10 152.95 156.41 152.88 156.69C152.74 157.31 152.52 157.75 152.10 158.20C151.24 158.58 150.71 157.85 150.36 157.11C150.24 156.85 150.24 156.54 150.06 156.33C149.82 156.05 149.43 155.94 149.16 155.69C148.25 154.81 147.37 153.50 146.71 152.46C143.77 147.79 141.60 142.59 140.23 137.25C139.41 134.09 139.42 133.47 138.99 130.27Z" fill="#d9a3a6" fill-opacity="0.8" transform="translate(55.57555415015247 84) scale(1)"/><path data-avatar-compiled-surface-marking="stinky-ear-fur-left" data-avatar-surface-decal="stinky-ear-fur-left" data-avatar-surface-decal-renderer="compiled" d="M143.37 138.91C143.46 138.13 143.44 137.34 143.63 136.59C143.95 135.26 144.64 134.14 145.67 133.25C148.55 130.75 153.79 131.05 155.76 134.59C156.86 136.59 156.67 138.89 156.44 141.07C156.04 144.98 155.03 149.10 153.29 152.64C153.12 152.98 152.94 153.32 152.73 153.64C152.60 153.84 152.38 153.98 152.26 154.19C152.18 154.35 152.22 154.54 152.18 154.71C152.09 155.08 151.96 155.35 151.70 155.62C150.86 155.98 150.81 154.93 150.44 154.49C150.29 154.32 150.05 154.26 149.88 154.11C149.35 153.62 148.71 152.76 148.33 152.18C145.70 148.18 144.06 143.62 143.37 138.91Z" fill="#e8e0da" fill-opacity="0.7" transform="translate(55.57555415015247 84) scale(1)"/></g></g></g></g><g data-avatar-entity-part="cat-ear-right" data-avatar-fragment-interaction-area="2662" data-avatar-fragment-interaction-ratio="1" data-avatar-fragment-raw-visible-area="2662" data-avatar-fragment-visible-area="2662" data-avatar-part-geometry="compiled-owner"><g data-avatar-compiled-base-layer="cat-ear-right"><path data-avatar-compiled-base="cat-ear-right" d="M295.17 161.85Q294.88 161.54 294.47 161.53Q293.81 160.68 292.93 160.07Q292.53 159.70 292.00 159.62Q291.72 159.61 291.44 159.54Q290.78 158.70 289.90 158.10Q289.51 157.78 289.00 157.77Q288.61 157.88 288.27 157.67Q287.90 157.03 287.29 156.60Q287.03 156.41 286.79 156.21Q286.45 155.91 286.00 155.90Q285.56 155.95 285.20 155.69Q284.84 155.55 284.70 155.18Q284.43 154.83 284.00 154.74Q283.70 154.65 283.39 154.56Q282.42 154.06 281.46 153.53Q276.22 151.35 271.00 149.12Q267.05 147.41 263.12 145.65Q260.56 144.85 258.00 144.03Q254.98 143.04 252.00 141.95Q251.00 141.58 250.00 141.19Q248.11 140.45 246.27 139.61Q245.64 139.39 245.00 139.19Q243.52 138.52 242.00 137.93Q241.63 137.83 241.31 137.62Q241.09 137.34 240.81 137.14Q240.48 136.78 240.00 136.71Q239.18 136.62 238.37 136.55Q238.21 136.24 237.87 136.13Q237.51 135.77 237.00 135.69Q236.42 135.59 235.83 135.53C235.97 135.40 236.16 135.30 236.25 135.13C238.88 130.20 241.27 125.14 243.88 120.20C249.98 108.66 256.21 97.16 263.33 86.22C264.11 85.02 264.90 83.83 265.72 82.66C267.87 79.60 268.35 78.88 270.50 76.42C271.10 75.72 271.71 75.01 272.36 74.35C272.56 74.15 272.76 73.91 273.04 73.84C273.84 73.64 274.69 73.67 275.51 73.57C275.73 73.54 275.94 73.51 276.15 73.45C276.44 73.37 276.72 73.04 276.99 73.16C277.37 73.34 277.51 73.83 277.74 74.19C278.35 75.16 279.39 77.81 279.56 78.20C280.04 79.37 280.58 81.24 280.84 82.20C282.55 88.42 281.79 86.21 283.36 93.04C284.14 96.42 285.08 99.74 285.74 103.16C287.73 113.47 286.66 108.32 288.30 118.03C289.96 127.89 288.82 120.14 290.34 130.02C291.46 137.30 291.25 136.60 292.41 145.01C292.77 147.70 293.19 150.38 293.55 153.06C293.91 155.75 294.09 158.45 294.58 161.12C294.64 161.42 294.97 161.61 295.17 161.85Z" fill="#151515" transform="scale(1)"/></g><g data-avatar-compiled-surface-layer="cat-ear-right" clip-path="url(#r0-compiled-owner-1)"><g transform="translate(57.938421886233726 -84)"><g><path data-avatar-compiled-surface-marking="stinky-ear-inner-right" data-avatar-surface-decal="stinky-ear-inner-right" data-avatar-surface-decal-renderer="compiled" d="M257.31 126.19C258.44 123.36 258.43 122.27 260.83 120.31C265.61 116.42 274.03 117.66 277.36 122.88C278.68 124.95 279.09 127.12 278.98 129.55C278.92 130.68 278.60 131.78 278.33 132.87C276.76 139.28 273.68 145.56 269.79 150.87C269.09 151.83 268.04 153.16 267.11 153.97C266.82 154.21 266.42 154.32 266.17 154.59C265.98 154.79 265.96 155.10 265.83 155.34C265.54 155.88 265.23 156.21 264.71 156.50C263.77 156.58 263.42 155.76 263.25 154.94C263.19 154.67 263.25 154.36 263.13 154.12C262.96 153.78 262.60 153.56 262.39 153.24C261.72 152.19 261.05 150.57 260.63 149.45C258.31 143.21 256.90 136.24 257.05 129.57C257.08 128.44 257.22 127.31 257.31 126.19Z" fill="#d9a3a6" fill-opacity="0.8" transform="translate(-57.938421886233726 84) scale(1)"/><path data-avatar-compiled-surface-marking="stinky-ear-fur-right" data-avatar-surface-decal="stinky-ear-fur-right" data-avatar-surface-decal-renderer="compiled" d="M260.34 135.75C261.05 133.99 261.01 133.41 262.50 132.20C265.47 129.77 270.62 130.56 272.73 133.78C273.97 135.68 273.89 137.72 273.35 139.82C272.38 143.67 270.46 147.43 268.07 150.59C267.64 151.16 266.98 151.98 266.41 152.45C266.23 152.60 265.99 152.66 265.83 152.82C265.71 152.94 265.70 153.13 265.62 153.28C265.44 153.60 265.25 153.80 264.93 153.97C264.02 154.04 264.23 153.07 263.95 152.53C263.84 152.32 263.62 152.19 263.49 152.00C263.07 151.36 262.66 150.40 262.40 149.72C260.69 145.25 259.97 140.50 260.34 135.75Z" fill="#e8e0da" fill-opacity="0.7" transform="translate(-57.938421886233726 84) scale(1)"/></g></g></g></g><g data-avatar-entity-part="cat-head" data-avatar-fragment-interaction-area="27731" data-avatar-fragment-interaction-ratio="1" data-avatar-fragment-raw-visible-area="27731" data-avatar-fragment-visible-area="27731" data-avatar-part-geometry="compiled-owner"><g data-avatar-compiled-base-layer="cat-head"><path data-avatar-compiled-base="cat-head" d="M235.83 135.53Q236.42 135.59 237.00 135.69Q237.51 135.77 237.87 136.13Q238.21 136.24 238.37 136.55Q239.18 136.62 240.00 136.71Q240.48 136.78 240.81 137.14Q241.09 137.34 241.31 137.62Q241.63 137.83 242.00 137.93Q243.52 138.52 245.00 139.19Q245.64 139.39 246.27 139.61Q248.11 140.45 250.00 141.19Q251.00 141.58 252.00 141.95Q254.98 143.04 258.00 144.03Q260.56 144.85 263.12 145.65Q267.05 147.41 271.00 149.12Q276.22 151.35 281.46 153.53Q282.42 154.06 283.39 154.56Q283.70 154.65 284.00 154.74Q284.43 154.83 284.70 155.18Q284.84 155.55 285.20 155.69Q285.56 155.95 286.00 155.90Q286.45 155.91 286.79 156.21Q287.03 156.41 287.29 156.60Q287.90 157.03 288.27 157.67Q288.61 157.88 289.00 157.77Q289.51 157.78 289.90 158.10Q290.78 158.70 291.44 159.54Q291.72 159.61 292.00 159.62Q292.53 159.70 292.93 160.07Q293.81 160.68 294.47 161.53Q294.88 161.54 295.17 161.85C295.23 162.12 295.17 162.45 295.36 162.65C303.60 171.18 302.05 167.70 309.20 177.68C313.12 183.14 314.83 187.19 317.44 193.25C317.58 193.56 317.68 193.88 317.77 194.21C318.46 196.54 319.15 198.87 319.80 201.20C319.88 201.49 319.94 201.78 319.98 202.08C320.34 204.41 320.68 206.74 321.01 209.07C321.05 209.38 321.08 209.69 321.08 210.00C321.17 215.30 321.37 220.67 320.00 225.86C319.39 228.21 318.74 230.55 318.09 232.89C317.99 233.23 317.88 233.57 317.75 233.89C316.81 236.18 315.82 238.45 314.85 240.72C314.71 241.04 314.59 241.36 314.42 241.66C312.85 244.35 311.39 247.13 309.62 249.70C303.07 259.17 294.39 267.26 284.69 273.44C280.10 276.36 275.37 279.11 270.40 281.33C265.07 283.71 259.41 285.28 253.90 287.21C253.23 287.44 252.46 287.31 251.81 287.58C250.51 288.12 249.29 288.85 247.97 289.34C247.29 289.59 246.56 289.67 245.85 289.78C243.87 290.09 241.87 290.29 239.88 290.58C239.04 290.71 238.82 290.88 238.00 290.90C236.33 290.92 234.67 290.84 233.00 290.90C231.99 290.93 231.01 291.33 230.00 291.36C228.33 291.42 226.66 291.20 225.00 291.36C224.95 291.37 222.69 292.20 222.00 292.22C220.50 292.27 219.00 292.11 217.50 292.22C217.22 292.24 217.00 292.48 216.76 292.62C216.13 293.01 215.53 293.45 214.89 293.83C214.61 293.99 214.33 294.23 214.00 294.24C210.34 294.37 206.64 294.70 203.00 294.24C201.25 294.02 199.83 292.60 198.10 292.25C196.44 291.91 194.69 292.41 193.00 292.22C191.97 292.11 191.03 291.47 190.00 291.36C188.02 291.16 186.02 291.45 184.04 291.32C183.05 291.25 182.08 290.93 181.10 290.79C180.24 290.66 173.88 290.02 172.02 289.38C164.51 286.81 156.89 284.47 149.62 281.29C144.57 279.09 139.81 276.23 135.17 273.28C122.93 265.49 112.26 254.60 105.59 241.65C104.30 239.15 103.34 236.49 102.25 233.89C102.12 233.57 102.01 233.23 101.92 232.89C100.45 227.69 98.85 222.48 98.86 217.00C98.86 211.72 98.75 206.37 100.20 201.20C100.85 198.87 101.54 196.54 102.23 194.21C102.32 193.89 102.43 193.56 102.56 193.25C103.59 190.86 104.66 188.48 105.73 186.10C108.37 180.29 113.21 174.09 117.48 169.50C120.05 166.74 122.88 164.22 125.69 161.70C126.58 160.91 127.70 160.41 128.58 159.61C128.78 159.43 128.75 159.10 128.83 158.85Q129.12 158.54 129.53 158.53Q130.18 157.67 131.05 157.05Q131.46 156.68 132.00 156.59Q132.28 156.59 132.55 156.54Q133.21 155.69 134.08 155.08Q134.47 154.71 135.00 154.63Q135.29 154.62 135.57 154.55Q136.26 153.73 137.15 153.15Q137.50 152.79 138.00 152.72Q138.37 152.64 138.73 152.57Q139.28 152.05 140.00 151.81Q140.71 151.62 141.43 151.43Q141.62 151.09 142.00 151.02Q142.45 150.69 143.00 150.66Q143.31 150.66 143.60 150.56Q143.75 150.22 144.10 150.12Q144.49 149.78 145.00 149.73Q145.36 149.77 145.68 149.61Q145.88 149.32 146.18 149.14Q146.53 148.81 147.00 148.78Q147.40 148.86 147.74 148.64Q149.06 148.12 150.29 147.40Q152.40 146.41 154.54 145.52Q155.27 145.34 156.00 145.17Q156.86 144.93 157.67 144.57Q158.87 144.36 160.00 143.92Q160.63 143.69 161.26 143.45Q163.64 142.69 166.00 141.89Q166.39 141.79 166.74 141.61Q167.04 141.46 167.24 141.21Q167.55 140.88 168.00 140.82Q168.83 140.68 169.67 140.57Q169.88 140.34 170.17 140.19Q171.10 140.16 171.97 139.82Q172.33 139.70 172.47 139.34Q172.66 139.05 173.00 139.04Q173.50 138.89 174.00 139.07Q174.51 139.13 174.97 138.87Q175.33 138.71 175.47 138.34Q175.64 138.02 176.00 137.97Q176.72 137.64 177.50 137.50Q177.65 137.18 178.00 137.12Q178.44 136.76 179.00 136.70Q180.37 136.61 181.74 136.54Q182.29 136.05 183.00 135.84Q183.49 135.67 184.00 135.68Q186.08 135.57 188.17 135.52C188.50 135.70 188.79 136.03 189.17 136.05C190.66 136.16 194.03 136.44 196.11 135.75C196.46 135.63 196.77 135.40 197.13 135.31C197.41 135.23 197.71 135.23 198.00 135.23C199.33 135.21 200.67 135.30 202.00 135.23C203.47 135.15 203.75 134.50 205.20 133.88C205.45 133.77 205.73 133.76 206.00 133.76C209.67 133.72 213.33 133.75 217.00 133.76C217.30 133.76 217.61 133.71 217.89 133.79C218.90 134.09 219.86 134.55 220.85 134.89C221.23 135.02 221.60 135.21 222.00 135.23C223.66 135.32 225.34 135.08 227.00 135.23C227.99 135.32 228.92 135.76 229.89 135.95C230.25 136.02 230.63 136.01 231.00 136.01C235.22 136.07 233.87 136.66 235.83 135.53Z" fill="#151515" transform="scale(1)"/></g><g data-avatar-compiled-surface-layer="cat-head" clip-path="url(#r0-compiled-owner-2)"><g transform="translate(0 12)"><g><path data-avatar-compiled-surface-marking="stinky-muzzle" data-avatar-surface-decal="stinky-muzzle" data-avatar-surface-decal-renderer="compiled" d="M199.13 216.04C194.65 216.30 193.78 216.18 189.31 217.13C187.58 217.49 185.87 217.93 184.19 218.46C182.47 218.99 180.77 219.60 179.10 220.29C177.43 220.98 175.78 221.75 174.18 222.60C165.31 227.31 156.78 235.06 155.33 245.53C155.09 247.24 155.04 248.98 155.16 250.69C155.37 253.96 156.30 257.48 157.64 260.47C161.87 269.96 171.07 275.91 180.62 279.13C188.27 281.70 196.41 282.68 204.46 282.68C212.28 282.68 220.26 281.76 227.67 279.13C232.13 277.54 232.59 277.02 236.58 274.68C237.77 273.72 239.05 272.85 240.17 271.80C242.42 269.66 244.07 267.49 245.41 264.69C246.81 261.80 247.54 259.00 247.79 255.80C247.93 254.10 247.95 252.39 247.79 250.69C247.62 248.95 247.32 247.21 246.83 245.53C243.74 234.93 234.27 227.34 224.78 222.60C223.09 221.75 221.35 220.98 219.58 220.29C216.19 218.95 212.60 217.86 209.03 217.13C204.47 216.18 203.67 216.30 199.13 216.04Z" fill="#f7f5f0" fill-opacity="1" transform="translate(0 -12) scale(1)"/><path data-avatar-compiled-surface-marking="stinky-blaze" data-avatar-surface-decal="stinky-blaze" data-avatar-surface-decal-renderer="compiled" d="M215.94 207.06C214.85 212.28 215.06 214.26 211.91 218.55C206.92 225.35 197.09 227.08 190.19 222.14C185.26 218.62 183.05 212.95 182.65 207.06C182.51 205.07 182.81 203.07 183.04 201.08C184.20 191.00 187.47 181.02 191.85 171.90C193.59 168.27 195.54 164.36 198.19 161.28C198.62 160.78 199.27 160.48 199.66 159.94C199.95 159.53 199.99 158.99 200.19 158.53C200.69 157.40 201.29 156.35 202.51 156.01C203.66 156.35 203.97 157.42 204.16 158.53C204.24 158.99 204.12 159.51 204.32 159.94C204.56 160.47 205.12 160.79 205.43 161.28C206.53 163.03 207.53 165.56 208.22 167.43C210.06 172.41 211.51 177.56 212.73 182.72C214.15 188.75 215.28 194.89 215.73 201.08C215.87 203.07 215.87 205.07 215.94 207.06Z" fill="#f7f5f0" fill-opacity="1" transform="translate(0 -12) scale(1)"/><path data-avatar-compiled-surface-marking="stinky-whisker-l0" data-avatar-surface-decal="stinky-whisker-l0" data-avatar-surface-decal-renderer="compiled" d="M161.13 232.87C161.42 232.94 161.72 232.99 162.00 233.10C162.81 233.40 162.44 233.46 163.17 233.59C164.90 233.91 166.61 234.27 168.34 234.57C168.89 234.67 169.46 234.65 170.00 234.77C170.24 234.83 171.61 235.14 170.94 235.91C170.72 236.16 170.33 236.27 170.00 236.25C166.59 236.02 163.36 234.88 159.95 234.67C159.86 234.59 159.80 234.46 159.68 234.43C158.80 234.25 157.89 234.20 157.00 234.05C155.90 233.86 154.81 233.63 153.70 233.44C149.91 232.79 146.11 232.21 142.32 231.54C142.12 231.50 140.52 231.16 140.23 230.78C140.11 230.62 140.11 230.33 140.23 230.18C140.63 229.69 141.54 229.85 142.00 229.93C143.11 230.11 144.20 230.37 145.31 230.56C149.10 231.22 152.90 231.82 156.70 232.46C157.47 232.59 158.24 232.73 159.00 232.88C159.34 232.95 159.66 233.14 160.00 233.13C160.39 233.13 160.75 232.96 161.13 232.87Z" fill="#f7f5f0" fill-opacity="0.85" transform="translate(0 -12) scale(1)"/><path data-avatar-compiled-surface-marking="stinky-whisker-l1" data-avatar-surface-decal="stinky-whisker-l1" data-avatar-surface-decal-renderer="compiled" d="M158.00 237.84C162.79 237.61 162.05 237.61 170.00 237.74C170.42 237.75 171.32 237.91 171.65 238.30C171.74 238.40 171.74 238.60 171.65 238.70C171.33 239.08 170.40 239.22 170.00 239.23C166.33 239.27 162.67 239.29 159.00 239.21C158.66 239.20 158.34 238.98 158.00 238.97C157.66 238.96 157.34 239.09 157.00 239.16C151.45 239.55 154.86 239.33 142.00 239.23C141.60 239.22 140.62 239.14 140.30 238.74C140.19 238.61 140.19 238.36 140.30 238.23C140.64 237.80 141.56 237.74 142.00 237.74C146.67 237.71 151.33 237.67 156.00 237.74C156.34 237.75 156.66 237.97 157.00 237.99C157.34 238.00 157.67 237.89 158.00 237.84Z" fill="#f7f5f0" fill-opacity="0.85" transform="translate(0 -12) scale(1)"/><path data-avatar-compiled-surface-marking="stinky-whisker-l2" data-avatar-surface-decal="stinky-whisker-l2" data-avatar-surface-decal-renderer="compiled" d="M155.10 245.12C153.34 245.01 151.72 245.44 150.00 245.76C147.67 246.20 145.34 246.61 143.00 247.02C142.54 247.10 141.58 247.32 141.17 246.83C141.02 246.66 141.03 246.34 141.17 246.16C141.49 245.73 142.86 245.51 143.21 245.44C144.92 245.12 146.62 244.76 148.34 244.46C151.08 243.98 153.53 243.88 156.03 242.86C158.39 243.00 160.68 242.32 163.00 241.94C164.33 241.72 165.67 241.50 167.00 241.24C167.93 241.07 170.56 240.13 171.59 241.33C171.88 241.67 171.26 241.83 171.00 241.94C170.45 242.16 169.19 242.45 168.68 242.54C165.44 243.10 159.17 243.46 155.10 245.12Z" fill="#f7f5f0" fill-opacity="0.85" transform="translate(0 -12) scale(1)"/><path data-avatar-compiled-surface-marking="stinky-whisker-r0" data-avatar-surface-decal="stinky-whisker-r0" data-avatar-surface-decal-renderer="compiled" d="M240.95 234.88C240.63 234.81 240.32 234.64 240.00 234.68C236.65 235.10 233.35 235.84 230.00 236.25C229.49 236.31 228.80 235.97 228.44 235.60C228.19 235.35 228.77 235.19 229.00 235.08C229.64 234.80 230.66 234.56 231.32 234.46C233.44 234.14 235.57 233.93 237.68 233.57C237.88 233.53 238.01 233.35 238.18 233.26C238.42 233.15 238.67 233.06 238.92 232.96C240.61 233.33 239.38 233.22 241.00 232.96C246.11 232.13 251.21 231.27 256.33 230.46C257.88 230.22 259.43 229.90 261.00 229.81C261.33 229.79 261.73 229.87 261.95 230.12C262.61 230.87 261.24 231.24 261.00 231.29C254.96 232.55 257.76 231.73 253.33 232.43C252.88 232.50 252.45 232.66 252.00 232.73C250.43 232.99 248.85 233.19 247.28 233.44C241.09 234.42 242.35 232.73 240.95 234.88Z" fill="#f7f5f0" fill-opacity="0.85" transform="translate(0 -12) scale(1)"/><path data-avatar-compiled-surface-marking="stinky-whisker-r1" data-avatar-surface-decal="stinky-whisker-r1" data-avatar-surface-decal-renderer="compiled" d="M243.00 237.83C243.33 237.89 243.66 238.02 244.00 238.00C244.34 237.99 244.66 237.76 245.00 237.75C250.33 237.67 255.67 237.72 261.00 237.74C261.45 237.74 262.44 237.75 262.81 238.19C262.93 238.35 262.93 238.64 262.81 238.80C262.45 239.22 261.44 239.23 261.00 239.23C245.50 239.29 250.27 239.62 244.01 239.15C243.67 239.09 243.34 238.95 243.00 238.96C242.66 238.97 242.34 239.21 242.00 239.21C238.00 239.29 234.00 239.29 230.00 239.23C229.61 239.22 228.70 239.01 228.38 238.65C228.04 238.28 228.70 238.05 229.00 237.95C229.32 237.83 229.66 237.75 230.00 237.74C238.55 237.60 237.90 237.60 243.00 237.83Z" fill="#f7f5f0" fill-opacity="0.85" transform="translate(0 -12) scale(1)"/><path data-avatar-compiled-surface-marking="stinky-whisker-r2" data-avatar-surface-decal="stinky-whisker-r2" data-avatar-surface-decal-renderer="compiled" d="M245.87 242.81C248.10 243.83 250.60 243.89 253.00 244.29C255.57 244.72 258.15 245.07 260.73 245.46C261.06 245.51 262.61 245.76 262.93 246.15C263.08 246.33 263.09 246.68 262.93 246.85C262.71 247.09 262.33 247.16 262.00 247.15C260.99 247.12 260.00 246.89 259.00 246.72C257.67 246.50 256.33 246.30 255.00 246.10C252.43 245.73 249.60 244.97 246.94 245.08C245.84 244.63 246.01 244.63 244.70 244.43C239.82 243.70 234.85 243.07 230.00 242.17C229.73 242.12 228.44 241.82 229.08 241.07C229.29 240.82 229.67 240.68 230.00 240.70C231.35 240.76 232.67 241.09 234.00 241.31C236.55 241.72 239.12 242.07 241.68 242.46C242.38 242.57 243.26 242.87 244.00 242.89C244.62 242.90 245.25 242.84 245.87 242.81Z" fill="#f7f5f0" fill-opacity="0.85" transform="translate(0 -12) scale(1)"/><path data-avatar-compiled-surface-marking="stinky-mouth-l" data-avatar-surface-decal="stinky-mouth-l" data-avatar-surface-decal-renderer="compiled" d="M200.40 239.16C200.24 241.21 198.73 242.47 196.84 243.10C196.19 243.31 195.50 243.46 194.83 243.53C191.70 243.85 187.31 242.75 186.73 239.16C186.89 237.10 188.39 235.86 190.28 235.22C190.93 235.00 191.61 234.86 192.29 234.79C195.42 234.47 199.81 235.58 200.40 239.16Z" fill="#d97f8c" fill-opacity="1" transform="translate(0 -12) scale(1)"/><path data-avatar-compiled-surface-marking="stinky-mouth-l-carve" data-avatar-surface-decal="stinky-mouth-l-carve" data-avatar-surface-decal-renderer="compiled" d="M199.20 236.30C199.06 238.52 197.49 239.97 195.38 240.51C192.76 241.17 189.24 240.31 188.02 237.67C187.74 237.08 187.77 236.93 187.68 236.30C187.72 235.69 187.68 235.53 187.90 234.94C188.48 233.42 189.98 232.48 191.49 232.10C194.11 231.44 197.63 232.30 198.86 234.94C199.13 235.52 199.11 235.68 199.20 236.30Z" fill="#f7f5f0" fill-opacity="1" transform="translate(0 -12) scale(1)"/><path data-avatar-compiled-surface-marking="stinky-mouth-r" data-avatar-surface-decal="stinky-mouth-r" data-avatar-surface-decal-renderer="compiled" d="M212.78 239.16C212.61 241.22 211.07 242.47 209.18 243.10C208.52 243.32 207.83 243.46 207.14 243.53C204.01 243.84 199.55 242.77 198.96 239.16C199.12 237.09 200.65 235.85 202.55 235.22C203.21 235.00 203.89 234.86 204.58 234.79C207.71 234.48 212.18 235.55 212.78 239.16Z" fill="#d97f8c" fill-opacity="1" transform="translate(0 -12) scale(1)"/><path data-avatar-compiled-surface-marking="stinky-mouth-r-carve" data-avatar-surface-decal="stinky-mouth-r-carve" data-avatar-surface-decal-renderer="compiled" d="M211.56 236.30C211.52 236.92 211.56 237.08 211.33 237.67C210.74 239.19 209.22 240.13 207.70 240.51C205.07 241.16 201.50 240.33 200.26 237.67C199.99 237.08 200.01 236.93 199.92 236.30C199.96 235.69 199.92 235.53 200.15 234.94C200.73 233.42 202.25 232.48 203.77 232.10C206.41 231.45 209.97 232.28 211.22 234.94C211.49 235.52 211.47 235.68 211.56 236.30Z" fill="#f7f5f0" fill-opacity="1" transform="translate(0 -12) scale(1)"/><path data-avatar-compiled-surface-marking="stinky-nose" data-avatar-surface-decal="stinky-nose" data-avatar-surface-decal-renderer="compiled" d="M208.88 233.20C208.65 233.56 208.51 233.98 208.19 234.26C207.31 235.02 205.70 235.45 204.65 235.67C201.36 236.36 197.73 236.35 194.44 235.67C193.36 235.45 191.74 235.01 190.83 234.26C190.50 233.98 190.32 233.56 190.07 233.20C190.11 232.88 190.12 232.54 190.21 232.22C190.67 230.65 191.98 229.34 193.18 228.29C193.82 227.74 194.57 227.18 195.28 226.72C195.84 226.36 196.56 225.96 197.19 225.71C197.42 225.62 197.69 225.60 197.91 225.49C198.00 225.45 198.03 225.33 198.10 225.26C198.40 224.98 198.82 224.85 199.22 224.85C199.63 224.85 200.05 224.98 200.35 225.26C200.42 225.33 200.45 225.45 200.55 225.49C200.78 225.60 201.04 225.62 201.28 225.71C201.93 225.96 202.65 226.36 203.24 226.72C204.00 227.19 204.77 227.72 205.46 228.29C206.73 229.33 208.12 230.63 208.68 232.22C208.80 232.54 208.82 232.88 208.88 233.20Z" fill="#e6a1a6" fill-opacity="1" transform="translate(0 -12) scale(1)"/><g data-avatar-face-surface-layer="cat-head"><path data-avatar-face-feature="eye-0" d="M 181.371 198.545 L 181.471 199.678 L 181.214 200.868 L 180.605 202.085 L 179.662 203.301 L 178.407 204.484 L 176.872 205.607 L 175.097 206.640 L 173.125 207.560 L 171.006 208.342 L 168.792 208.968 L 166.537 209.423 L 164.298 209.695 L 162.128 209.777 L 160.080 209.668 L 158.204 209.370 L 156.545 208.891 L 155.144 208.242 L 154.032 207.439 L 153.239 206.502 L 152.782 205.455 L 152.673 204.322 L 152.916 203.132 L 153.503 201.915 L 154.423 200.699 L 155.654 199.516 L 157.165 198.393 L 158.921 197.360 L 160.879 196.440 L 162.991 195.658 L 165.206 195.032 L 167.469 194.577 L 169.724 194.305 L 171.914 194.223 L 173.986 194.332 L 175.886 194.630 L 177.568 195.109 L 178.989 195.758 L 180.114 196.561 L 180.915 197.498 Z" fill="#cdb44e"/><path data-avatar-face-feature="eye-1" d="M 247.405 205.455 L 246.921 206.502 L 246.070 207.439 L 244.874 208.242 L 243.363 208.891 L 241.575 209.370 L 239.555 209.668 L 237.353 209.777 L 235.026 209.695 L 232.630 209.423 L 230.225 208.968 L 227.872 208.342 L 225.626 207.560 L 223.545 206.640 L 221.677 205.607 L 220.070 204.484 L 218.760 203.301 L 217.781 202.085 L 217.154 200.868 L 216.895 199.678 L 217.010 198.545 L 217.496 197.498 L 218.340 196.561 L 219.522 195.758 L 221.014 195.109 L 222.779 194.630 L 224.774 194.332 L 226.952 194.223 L 229.259 194.305 L 231.640 194.577 L 234.036 195.032 L 236.389 195.658 L 238.641 196.440 L 240.736 197.360 L 242.623 198.393 L 244.254 199.516 L 245.588 200.699 L 246.591 201.915 L 247.238 203.132 L 247.512 204.322 Z" fill="#cdb44e"/><path data-avatar-eye-highlight="eye-highlight-0" data-avatar-face-feature="eye-highlight-0" clip-path="url(#r0-entity-eye-0-highlight-clip)" d="M 168.292 202.000 L 168.270 203.099 L 168.205 204.170 L 168.100 205.189 L 167.961 206.128 L 167.795 206.966 L 167.611 207.682 L 167.420 208.258 L 167.234 208.680 L 167.070 208.937 L 166.962 209.023 L 166.853 208.937 L 166.689 208.680 L 166.503 208.258 L 166.312 207.682 L 166.128 206.966 L 165.962 206.128 L 165.823 205.189 L 165.718 204.170 L 165.653 203.099 L 165.631 202.000 L 165.653 200.901 L 165.718 199.830 L 165.823 198.811 L 165.962 197.872 L 166.128 197.034 L 166.312 196.318 L 166.503 195.742 L 166.689 195.320 L 166.853 195.063 L 166.962 194.977 L 167.070 195.063 L 167.234 195.320 L 167.420 195.742 L 167.611 196.318 L 167.795 197.034 L 167.961 197.872 L 168.100 198.811 L 168.205 199.830 L 168.270 200.901 Z" fill="#0a0a0a" fill-opacity="1" data-stinky-slit="M 168.292 202.000 L 168.270 203.099 L 168.205 204.170 L 168.100 205.189 L 167.961 206.128 L 167.795 206.966 L 167.611 207.682 L 167.420 208.258 L 167.234 208.680 L 167.070 208.937 L 166.962 209.023 L 166.853 208.937 L 166.689 208.680 L 166.503 208.258 L 166.312 207.682 L 166.128 206.966 L 165.962 206.128 L 165.823 205.189 L 165.718 204.170 L 165.653 203.099 L 165.631 202.000 L 165.653 200.901 L 165.718 199.830 L 165.823 198.811 L 165.962 197.872 L 166.128 197.034 L 166.312 196.318 L 166.503 195.742 L 166.689 195.320 L 166.853 195.063 L 166.962 194.977 L 167.070 195.063 L 167.234 195.320 L 167.420 195.742 L 167.611 196.318 L 167.795 197.034 L 167.961 197.872 L 168.100 198.811 L 168.205 199.830 L 168.270 200.901 Z"/><path data-avatar-eye-highlight="eye-highlight-1" data-avatar-face-feature="eye-highlight-1" clip-path="url(#r0-entity-eye-1-highlight-clip)" d="M 233.507 202.000 L 233.484 203.167 L 233.415 204.306 L 233.303 205.388 L 233.156 206.386 L 232.979 207.277 L 232.784 208.037 L 232.580 208.649 L 232.383 209.097 L 232.209 209.370 L 232.094 209.462 L 231.978 209.370 L 231.804 209.097 L 231.607 208.649 L 231.403 208.037 L 231.208 207.277 L 231.031 206.386 L 230.884 205.388 L 230.772 204.306 L 230.703 203.167 L 230.680 202.000 L 230.703 200.833 L 230.772 199.694 L 230.884 198.612 L 231.031 197.614 L 231.208 196.723 L 231.403 195.963 L 231.607 195.351 L 231.804 194.903 L 231.978 194.630 L 232.094 194.538 L 232.209 194.630 L 232.383 194.903 L 232.580 195.351 L 232.784 195.963 L 232.979 196.723 L 233.156 197.614 L 233.303 198.612 L 233.415 199.694 L 233.484 200.833 Z" fill="#0a0a0a" fill-opacity="1" data-stinky-slit="M 233.507 202.000 L 233.484 203.167 L 233.415 204.306 L 233.303 205.388 L 233.156 206.386 L 232.979 207.277 L 232.784 208.037 L 232.580 208.649 L 232.383 209.097 L 232.209 209.370 L 232.094 209.462 L 231.978 209.370 L 231.804 209.097 L 231.607 208.649 L 231.403 208.037 L 231.208 207.277 L 231.031 206.386 L 230.884 205.388 L 230.772 204.306 L 230.703 203.167 L 230.680 202.000 L 230.703 200.833 L 230.772 199.694 L 230.884 198.612 L 231.031 197.614 L 231.208 196.723 L 231.403 195.963 L 231.607 195.351 L 231.804 194.903 L 231.978 194.630 L 232.094 194.538 L 232.209 194.630 L 232.383 194.903 L 232.580 195.351 L 232.784 195.963 L 232.979 196.723 L 233.156 197.614 L 233.303 198.612 L 233.415 199.694 L 233.484 200.833 Z"/></g></g></g></g></g></g></g></g></g></g></svg>