<svg xmlns="http://www.w3.org/2000/svg" class="interactive-avatar__canvas" viewBox="0 0 420 420" aria-hidden="true" focusable="false" width="256" height="256"><defs><clipPath id="oneworks-avatar-export-frame"><path d="M 0 0 H 420 V 420 H 0 Z"/></clipPath></defs><g clip-path="url(#oneworks-avatar-export-frame)"><path d="M 0 0 H 420 V 420 H 0 Z" fill="transparent"/><g><defs><clipPath id="r0-clip"><path d=""/></clipPath><filter id="r0-face-shadow-blur" x="-50%" y="-50%" width="200%" height="200%"><feGaussianBlur stdDeviation="0"/></filter><filter id="r0-avatar-shadow" x="-100%" y="-100%" width="300%" height="300%"><feDropShadow dx="-6.691306063588582" dy="7.431448254773942" stdDeviation="7" flood-color="#7c3140" flood-opacity="0.28"/></filter></defs><g transform="translate(0 17) translate(210 210) rotate(0) scale(1.34) translate(-210 -210)"><g data-avatar-entity-fragment-root="true" data-avatar-entity-preset="cat" data-avatar-fragment-composition="compiled-owner-partition" data-avatar-fragment-build-count="239" data-avatar-fragment-build-ms="0.200" data-avatar-fragment-compile-count="1" data-avatar-fragment-compile-ms="298.300" data-avatar-fragment-drag-build-max-ms="0.000" data-avatar-fragment-drag-build-mean-ms="0.000" data-avatar-fragment-drag-build-p95-ms="0.000" data-avatar-fragment-drag-build-samples="0" data-avatar-fragment-quality="full" data-avatar-fragment-raster-size="420" data-avatar-fragment-revision="{&quot;groups&quot;:[{&quot;id&quot;:&quot;anatomy-cat-ear-left&quot;,&quot;primitiveIds&quot;:[&quot;cat-ear-left&quot;],&quot;resolution&quot;:28},{&quot;id&quot;:&quot;anatomy-cat-ear-right&quot;,&quot;primitiveIds&quot;:[&quot;cat-ear-right&quot;],&quot;resolution&quot;:28},{&quot;id&quot;:&quot;anatomy-cat-head&quot;,&quot;primitiveIds&quot;:[&quot;cat-head&quot;],&quot;resolution&quot;:28}],&quot;id&quot;:&quot;production-cat&quot;,&quot;primitives&quot;:[{&quot;id&quot;:&quot;cat-ear-left&quot;,&quot;materialId&quot;:&quot;cat-ear-left&quot;,&quot;position&quot;:{&quot;x&quot;:-56,&quot;y&quot;:-78,&quot;z&quot;:-8},&quot;productionShape&quot;:&quot;cone&quot;,&quot;roundness&quot;:48,&quot;rotation&quot;:{&quot;x&quot;:-0.12217304763960307,&quot;y&quot;:-0.22689280275926285,&quot;z&quot;:-0.15707963267948966},&quot;scale&quot;:{&quot;x&quot;:33.36,&quot;y&quot;:41.922399999999996,&quot;z&quot;:29.759999999999998},&quot;shape&quot;:&quot;cone&quot;},{&quot;id&quot;:&quot;cat-ear-right&quot;,&quot;materialId&quot;:&quot;cat-ear-right&quot;,&quot;position&quot;:{&quot;x&quot;:56,&quot;y&quot;:-78,&quot;z&quot;:-10},&quot;productionShape&quot;:&quot;cone&quot;,&quot;roundness&quot;:52,&quot;rotation&quot;:{&quot;x&quot;:-0.10471975511965977,&quot;y&quot;:0.22689280275926285,&quot;z&quot;:0.15707963267948966},&quot;scale&quot;:{&quot;x&quot;:31.970000000000002,&quot;y&quot;:40.47680000000001,&quot;z&quot;:28.52},&quot;shape&quot;:&quot;cone&quot;},{&quot;id&quot;:&quot;cat-head&quot;,&quot;materialId&quot;:&quot;cat-head&quot;,&quot;position&quot;:{&quot;x&quot;:0,&quot;y&quot;:12,&quot;z&quot;:0},&quot;productionShape&quot;:&quot;ellipse&quot;,&quot;rotation&quot;:{&quot;x&quot;:0,&quot;y&quot;:0,&quot;z&quot;:0},&quot;scale&quot;:{&quot;x&quot;:111.69,&quot;y&quot;:80.24000000000001,&quot;z&quot;:82.96000000000001},&quot;shape&quot;:&quot;ellipse&quot;}],&quot;resolution&quot;:28,&quot;smoothUnionPairs&quot;:[],&quot;smoothUnionRadius&quot;:0}:420:-0.130479:0.000000" data-avatar-fragment-release-build-ms="0.000" data-avatar-fragment-settle-build-ms="0.000" data-avatar-fragment-path-characters="40766" data-avatar-fragment-path-serialization-ms="0.000" data-avatar-fragment-candidate-tests="136190" data-avatar-fragment-contour-ms="9.500" data-avatar-fragment-curve-segments="1223" data-avatar-fragment-contour-segments="1130" data-avatar-fragment-depth-owner-ms="27.300" data-avatar-fragment-line-segments="0" data-avatar-fragment-max-curve-error="0.125" data-avatar-fragment-shared-curve-reuse="125" data-avatar-fragment-null-owner-pixels="0" data-avatar-fragment-transform-ms="0.100"><defs><filter id="r0-entity-face-shadow" x="-50%" y="-50%" width="200%" height="200%"><feGaussianBlur stdDeviation="0"/></filter><filter id="r0-entity-outline" x="-30%" y="-30%" width="160%" height="160%"><feMorphology in="SourceAlpha" operator="dilate" radius="2" result="expanded"/><feFlood flood-color="#050608" flood-opacity="0.9"/><feComposite in2="expanded" operator="in"/><feMerge><feMergeNode/><feMergeNode in="SourceGraphic"/></feMerge></filter><clipPath id="r0-compiled-owner-0" clipPathUnits="userSpaceOnUse"><path d="M183.17 135.53Q182.54 135.64 182.05 136.05Q181.69 136.17 181.55 136.53Q179.77 136.57 178.00 136.64Q177.47 136.72 177.09 137.09Q176.73 137.21 176.59 137.56Q176.30 137.65 176.00 137.65Q175.51 137.73 175.17 138.09Q174.82 138.27 174.67 138.64Q174.35 138.84 174.00 138.72Q173.50 138.62 173.00 138.67Q172.55 138.75 172.25 139.10Q172.03 139.41 171.75 139.67Q171.39 139.87 171.00 139.76Q170.51 139.58 170.00 139.72Q169.50 139.79 169.14 140.14Q168.81 140.25 168.64 140.56Q167.82 140.65 167.00 140.76Q166.49 140.82 166.13 141.17Q165.80 141.26 165.63 141.55Q165.34 141.77 165.00 141.86Q164.52 142.08 164.00 142.00Q163.57 141.94 163.21 142.19Q162.96 142.39 162.71 142.58Q162.38 142.79 162.00 142.91Q161.52 143.12 161.00 143.02Q160.59 142.95 160.24 143.19Q160.03 143.45 159.74 143.60Q159.39 143.79 159.00 143.91Q158.51 144.10 158.00 143.96Q157.53 143.90 157.14 144.15Q156.82 144.26 156.64 144.56Q156.35 144.77 156.00 144.86Q155.51 145.05 155.00 144.93Q154.50 144.87 154.07 145.13Q153.72 145.21 153.57 145.54Q153.34 145.79 153.00 145.86Q152.23 146.20 151.40 146.30Q151.24 146.62 150.90 146.68Q150.48 146.93 150.00 146.90Q149.60 146.92 149.33 147.22Q149.18 147.56 148.83 147.66Q148.44 147.88 148.00 147.85Q147.53 147.87 147.19 148.19Q146.93 148.37 146.69 148.57Q146.35 148.66 146.00 148.73Q145.51 148.81 145.16 149.16Q144.86 149.30 144.66 149.56Q144.34 149.65 144.00 149.69Q143.49 149.76 143.12 150.12Q142.77 150.22 142.62 150.55Q142.32 150.63 142.00 150.65Q141.48 150.73 141.09 151.09Q140.74 151.20 140.59 151.55Q140.30 151.62 140.00 151.62Q139.47 151.70 139.07 152.07Q138.71 152.19 138.57 152.54Q138.29 152.60 138.00 152.60Q137.46 152.68 137.06 153.06Q136.19 153.68 135.54 154.53Q135.27 154.58 135.00 154.57Q134.45 154.66 134.04 155.04Q133.67 155.17 133.54 155.53Q133.12 155.54 132.83 155.85C135.93 149.45 133.00 155.72 135.54 136.51C137.12 124.47 139.09 112.40 141.67 100.53C142.47 96.86 143.26 93.06 144.53 89.51C145.06 88.02 145.59 86.52 146.30 85.11C146.49 84.73 146.82 84.40 147.20 84.21C147.38 84.12 147.58 84.30 147.75 84.40C148.80 84.99 149.84 85.61 150.84 86.28C151.00 86.39 151.11 86.57 151.23 86.72C152.00 87.62 152.76 88.51 153.51 89.41C153.82 89.79 154.11 90.18 154.40 90.57C158.14 95.57 154.95 91.34 159.77 98.17C160.46 99.15 161.21 100.09 161.90 101.07C163.12 102.81 164.31 104.57 165.48 106.35C169.08 111.84 174.61 121.01 177.35 125.59C179.32 128.88 181.23 132.22 183.17 135.53Z" transform="scale(1)"/></clipPath><clipPath id="r0-compiled-owner-1" clipPathUnits="userSpaceOnUse"><path d="M290.17 157.86Q289.84 157.55 289.39 157.54Q289.24 157.20 288.89 157.11Q288.52 156.74 288.00 156.65Q287.72 156.60 287.44 156.54Q286.76 155.72 285.87 155.13Q285.51 154.77 285.00 154.70Q284.69 154.66 284.40 154.56Q283.93 153.96 283.25 153.60Q282.95 153.49 282.75 153.25Q282.45 152.91 282.00 152.85Q281.23 152.61 280.42 152.53Q280.27 152.21 279.92 152.14Q279.52 151.80 279.00 151.76Q278.60 151.78 278.24 151.62Q277.93 151.48 277.74 151.20Q277.43 150.90 277.00 150.90Q276.51 150.95 276.09 150.69Q275.75 150.62 275.59 150.31Q274.80 150.02 274.00 149.76Q270.55 148.31 267.19 146.65Q265.81 146.19 264.51 145.50Q263.73 145.40 263.00 145.10Q262.19 144.86 261.40 144.53Q260.68 144.42 260.00 144.16Q259.17 143.89 258.36 143.55Q257.66 143.41 257.00 143.15Q256.20 142.89 255.44 142.52Q254.70 142.36 254.00 142.09Q253.26 141.84 252.57 141.48Q251.75 141.31 251.00 140.95Q249.54 140.30 248.04 139.73Q247.74 139.64 247.54 139.39Q246.37 139.07 245.25 138.61Q244.95 138.46 244.75 138.20Q244.45 137.85 244.00 137.78Q243.62 137.68 243.24 137.58Q242.70 137.08 242.00 136.85Q241.53 136.60 241.00 136.62Q240.42 136.58 239.83 136.53C242.41 133.01 243.78 129.27 245.77 125.65C248.61 120.49 252.76 113.36 255.62 108.57C258.46 103.83 261.39 99.08 264.57 94.55C266.16 92.30 267.86 89.67 269.87 87.71C270.68 86.92 271.51 86.16 272.38 85.43C272.44 85.37 272.56 85.33 272.63 85.39C273.35 85.99 274.02 86.66 274.66 87.35C274.88 87.58 275.05 87.85 275.20 88.13C275.38 88.46 275.52 88.81 275.66 89.15C276.44 91.16 277.22 93.16 277.95 95.18C278.83 97.58 279.36 99.60 280.02 102.12C280.89 105.51 281.17 107.29 282.00 111.10C282.52 113.43 283.09 115.75 283.58 118.09C285.03 125.04 287.22 138.15 288.00 143.08C288.79 147.99 289.45 152.93 290.17 157.86Z" transform="scale(1)"/></clipPath><clipPath id="r0-compiled-owner-2" clipPathUnits="userSpaceOnUse"><path d="M239.83 136.53Q240.42 136.58 241.00 136.62Q241.53 136.60 242.00 136.85Q242.70 137.08 243.24 137.58Q243.62 137.68 244.00 137.78Q244.45 137.85 244.75 138.20Q244.95 138.46 245.25 138.61Q246.37 139.07 247.54 139.39Q247.74 139.64 248.04 139.73Q249.54 140.30 251.00 140.95Q251.75 141.31 252.57 141.48Q253.26 141.84 254.00 142.09Q254.70 142.36 255.44 142.52Q256.20 142.89 257.00 143.15Q257.66 143.41 258.36 143.55Q259.17 143.89 260.00 144.16Q260.68 144.42 261.40 144.53Q262.19 144.86 263.00 145.10Q263.73 145.40 264.51 145.50Q265.81 146.19 267.19 146.65Q270.55 148.31 274.00 149.76Q274.80 150.02 275.59 150.31Q275.75 150.62 276.09 150.69Q276.51 150.95 277.00 150.90Q277.43 150.90 277.74 151.20Q277.93 151.48 278.24 151.62Q278.60 151.78 279.00 151.76Q279.52 151.80 279.92 152.14Q280.27 152.21 280.42 152.53Q281.23 152.61 282.00 152.85Q282.45 152.91 282.75 153.25Q282.95 153.49 283.25 153.60Q283.93 153.96 284.40 154.56Q284.69 154.66 285.00 154.70Q285.51 154.77 285.87 155.13Q286.76 155.72 287.44 156.54Q287.72 156.60 288.00 156.65Q288.52 156.74 288.89 157.11Q289.24 157.20 289.39 157.54Q289.84 157.55 290.17 157.86C290.22 158.16 290.09 158.55 290.32 158.75C291.54 159.87 293.10 160.59 294.35 161.68C297.18 164.17 299.98 166.72 302.54 169.48C306.82 174.08 311.64 180.27 314.28 186.10C315.36 188.47 316.42 190.85 317.45 193.24C317.58 193.56 317.69 193.88 317.78 194.21C318.47 196.53 319.15 198.86 319.81 201.20C319.89 201.49 319.95 201.78 319.99 202.07C320.35 204.40 320.69 206.74 321.02 209.07C321.76 214.42 320.90 219.69 320.18 224.96C320.14 225.26 320.09 225.57 320.01 225.87C319.31 228.49 318.72 231.15 317.83 233.72C313.57 246.01 305.27 257.05 295.43 265.40C292.02 268.29 288.46 271.04 284.69 273.44C280.10 276.36 275.37 279.11 270.40 281.33C265.07 283.71 259.41 285.28 253.90 287.21C253.23 287.44 252.46 287.31 251.81 287.58C250.51 288.12 249.29 288.85 247.97 289.34C247.29 289.59 246.56 289.67 245.85 289.78C243.87 290.09 241.87 290.29 239.88 290.58C239.04 290.70 238.81 290.88 238.00 290.90C236.33 290.92 234.67 290.84 233.00 290.90C231.99 290.93 231.01 291.33 230.00 291.36C228.33 291.42 226.66 291.28 225.00 291.36C223.95 291.42 223.06 292.19 222.00 292.22C220.50 292.27 219.00 292.11 217.50 292.22C217.22 292.24 217.00 292.48 216.76 292.62C216.13 293.01 215.53 293.45 214.89 293.83C214.61 293.99 214.33 294.23 214.00 294.24C210.34 294.37 206.64 294.70 203.00 294.24C201.25 294.02 199.83 292.60 198.10 292.25C196.44 291.91 194.69 292.41 193.00 292.22C191.97 292.11 191.03 291.47 190.00 291.36C188.02 291.16 186.02 291.45 184.04 291.32C183.05 291.26 182.08 290.93 181.10 290.79C180.24 290.66 173.89 290.02 172.02 289.38C164.51 286.81 156.89 284.48 149.61 281.30C144.57 279.09 139.81 276.23 135.17 273.28C122.93 265.49 112.26 254.60 105.58 241.65C104.29 239.15 103.34 236.49 102.25 233.89C102.11 233.57 102.01 233.23 101.91 232.89C100.45 227.69 98.85 222.48 98.85 217.00C98.86 211.72 98.74 206.37 100.19 201.20C101.75 195.66 103.21 190.14 106.23 185.14C107.74 182.65 109.26 180.16 110.81 177.69C110.92 177.50 111.08 177.34 111.22 177.17C117.32 169.68 117.99 168.22 125.69 161.70C127.87 159.86 130.42 158.49 132.63 156.68C132.85 156.50 132.77 156.13 132.83 155.85Q133.12 155.54 133.54 155.53Q133.67 155.17 134.04 155.04Q134.45 154.66 135.00 154.57Q135.27 154.58 135.54 154.53Q136.19 153.68 137.06 153.06Q137.46 152.68 138.00 152.60Q138.29 152.60 138.57 152.54Q138.71 152.19 139.07 152.07Q139.47 151.70 140.00 151.62Q140.30 151.62 140.59 151.55Q140.74 151.20 141.09 151.09Q141.48 150.73 142.00 150.65Q142.32 150.63 142.62 150.55Q142.77 150.22 143.12 150.12Q143.49 149.76 144.00 149.69Q144.34 149.65 144.66 149.56Q144.86 149.30 145.16 149.16Q145.51 148.81 146.00 148.73Q146.35 148.66 146.69 148.57Q146.93 148.37 147.19 148.19Q147.53 147.87 148.00 147.85Q148.44 147.88 148.83 147.66Q149.18 147.56 149.33 147.22Q149.60 146.92 150.00 146.90Q150.48 146.93 150.90 146.68Q151.24 146.62 151.40 146.30Q152.23 146.20 153.00 145.86Q153.34 145.79 153.57 145.54Q153.72 145.21 154.07 145.13Q154.50 144.87 155.00 144.93Q155.51 145.05 156.00 144.86Q156.35 144.77 156.64 144.56Q156.82 144.26 157.14 144.15Q157.53 143.90 158.00 143.96Q158.51 144.10 159.00 143.91Q159.39 143.79 159.74 143.60Q160.03 143.45 160.24 143.19Q160.59 142.95 161.00 143.02Q161.52 143.12 162.00 142.91Q162.38 142.79 162.71 142.58Q162.96 142.39 163.21 142.19Q163.57 141.94 164.00 142.00Q164.52 142.08 165.00 141.86Q165.34 141.77 165.63 141.55Q165.80 141.26 166.13 141.17Q166.49 140.82 167.00 140.76Q167.82 140.65 168.64 140.56Q168.81 140.25 169.14 140.14Q169.50 139.79 170.00 139.72Q170.51 139.58 171.00 139.76Q171.39 139.87 171.75 139.67Q172.03 139.41 172.25 139.10Q172.55 138.75 173.00 138.67Q173.50 138.62 174.00 138.72Q174.35 138.84 174.67 138.64Q174.82 138.27 175.17 138.09Q175.51 137.73 176.00 137.65Q176.30 137.65 176.59 137.56Q176.73 137.21 177.09 137.09Q177.47 136.72 178.00 136.64Q179.77 136.57 181.55 136.53Q181.69 136.17 182.05 136.05Q182.54 135.64 183.17 135.53C183.44 135.83 183.60 136.33 184.00 136.43C184.17 136.47 187.36 136.48 188.25 136.33C188.57 136.28 188.85 136.11 189.17 136.06C189.44 136.01 189.72 136.02 190.00 136.01C191.67 136.00 193.33 136.09 195.00 136.01C196.10 135.97 196.89 135.25 198.00 135.23C199.33 135.21 200.67 135.30 202.00 135.23C203.48 135.15 203.73 134.51 205.21 133.88C205.45 133.77 205.73 133.76 206.00 133.76C209.67 133.72 213.33 133.75 217.00 133.76C217.30 133.76 217.61 133.71 217.89 133.79C218.90 134.09 219.86 134.54 220.85 134.89C221.23 135.02 221.60 135.21 222.00 135.23C223.66 135.32 225.34 135.08 227.00 135.23C227.99 135.32 228.92 135.76 229.89 135.95C230.25 136.02 230.63 136.01 231.00 136.01C232.63 136.03 234.26 135.89 235.88 136.02C236.93 136.10 237.93 136.49 238.97 136.62C239.26 136.66 239.55 136.56 239.83 136.53Z" transform="scale(1)"/></clipPath><clipPath id="r0-entity-eye-0-highlight-clip"><path d="M 170.715 188.665 L 173.048 188.887 L 175.288 189.545 L 177.349 190.613 L 179.151 192.051 L 180.627 193.803 L 181.721 195.801 L 182.392 197.970 L 182.613 200.225 L 182.612 200.669 L 182.611 201.112 L 182.611 201.556 L 182.611 202.000 L 182.611 202.444 L 182.611 202.888 L 182.612 203.331 L 182.613 203.775 L 182.392 206.030 L 181.721 208.199 L 180.627 210.197 L 179.151 211.949 L 177.349 213.387 L 175.288 214.455 L 173.048 215.113 L 170.715 215.335 L 170.715 215.335 L 170.715 215.335 L 170.715 215.335 L 170.715 215.335 L 170.715 215.335 L 170.715 215.335 L 170.715 215.335 L 170.715 215.335 L 168.376 215.113 L 166.123 214.455 L 164.042 213.387 L 162.215 211.949 L 160.711 210.197 L 159.591 208.199 L 158.898 206.030 L 158.659 203.775 L 158.658 203.331 L 158.657 202.888 L 158.656 202.444 L 158.656 202.000 L 158.656 201.556 L 158.657 201.112 L 158.658 200.669 L 158.659 200.225 L 158.898 197.970 L 159.591 195.801 L 160.711 193.803 L 162.215 192.051 L 164.042 190.613 L 166.123 189.545 L 168.376 188.887 L 170.715 188.665 L 170.715 188.665 L 170.715 188.665 L 170.715 188.665 L 170.715 188.665 L 170.715 188.665 L 170.715 188.665 L 170.715 188.665 Z"/></clipPath><clipPath id="r0-entity-eye-1-highlight-clip"><path d="M 228.618 188.665 L 231.081 188.887 L 233.444 189.545 L 235.618 190.613 L 237.519 192.051 L 239.077 193.803 L 240.231 195.801 L 240.938 197.970 L 241.172 200.225 L 241.170 200.669 L 241.169 201.112 L 241.169 201.556 L 241.169 202.000 L 241.169 202.444 L 241.169 202.888 L 241.170 203.331 L 241.172 203.775 L 240.938 206.030 L 240.231 208.199 L 239.077 210.197 L 237.519 211.949 L 235.618 213.387 L 233.444 214.455 L 231.081 215.113 L 228.618 215.335 L 228.618 215.335 L 228.618 215.335 L 228.618 215.335 L 228.618 215.335 L 228.618 215.335 L 228.618 215.335 L 228.618 215.335 L 228.618 215.335 L 226.151 215.113 L 223.774 214.455 L 221.580 213.387 L 219.653 211.949 L 218.069 210.197 L 216.889 208.199 L 216.159 206.030 L 215.908 203.775 L 215.907 203.331 L 215.906 202.888 L 215.906 202.444 L 215.905 202.000 L 215.906 201.556 L 215.906 201.112 L 215.907 200.669 L 215.908 200.225 L 216.159 197.970 L 216.889 195.801 L 218.069 193.803 L 219.653 192.051 L 221.580 190.613 L 223.774 189.545 L 226.151 188.887 L 228.618 188.665 L 228.618 188.665 L 228.618 188.665 L 228.618 188.665 L 228.618 188.665 L 228.618 188.665 L 228.618 188.665 L 228.618 188.665 Z"/></clipPath></defs><g filter="url(#r0-entity-outline)"><g data-avatar-entity-part="cat-ear-left" data-avatar-fragment-interaction-area="1819" data-avatar-fragment-interaction-ratio="1" data-avatar-fragment-raw-visible-area="1819" data-avatar-fragment-visible-area="1819" data-avatar-part-geometry="compiled-owner"><g data-avatar-compiled-base-layer="cat-ear-left"><path data-avatar-compiled-base="cat-ear-left" d="M183.17 135.53Q182.54 135.64 182.05 136.05Q181.69 136.17 181.55 136.53Q179.77 136.57 178.00 136.64Q177.47 136.72 177.09 137.09Q176.73 137.21 176.59 137.56Q176.30 137.65 176.00 137.65Q175.51 137.73 175.17 138.09Q174.82 138.27 174.67 138.64Q174.35 138.84 174.00 138.72Q173.50 138.62 173.00 138.67Q172.55 138.75 172.25 139.10Q172.03 139.41 171.75 139.67Q171.39 139.87 171.00 139.76Q170.51 139.58 170.00 139.72Q169.50 139.79 169.14 140.14Q168.81 140.25 168.64 140.56Q167.82 140.65 167.00 140.76Q166.49 140.82 166.13 141.17Q165.80 141.26 165.63 141.55Q165.34 141.77 165.00 141.86Q164.52 142.08 164.00 142.00Q163.57 141.94 163.21 142.19Q162.96 142.39 162.71 142.58Q162.38 142.79 162.00 142.91Q161.52 143.12 161.00 143.02Q160.59 142.95 160.24 143.19Q160.03 143.45 159.74 143.60Q159.39 143.79 159.00 143.91Q158.51 144.10 158.00 143.96Q157.53 143.90 157.14 144.15Q156.82 144.26 156.64 144.56Q156.35 144.77 156.00 144.86Q155.51 145.05 155.00 144.93Q154.50 144.87 154.07 145.13Q153.72 145.21 153.57 145.54Q153.34 145.79 153.00 145.86Q152.23 146.20 151.40 146.30Q151.24 146.62 150.90 146.68Q150.48 146.93 150.00 146.90Q149.60 146.92 149.33 147.22Q149.18 147.56 148.83 147.66Q148.44 147.88 148.00 147.85Q147.53 147.87 147.19 148.19Q146.93 148.37 146.69 148.57Q146.35 148.66 146.00 148.73Q145.51 148.81 145.16 149.16Q144.86 149.30 144.66 149.56Q144.34 149.65 144.00 149.69Q143.49 149.76 143.12 150.12Q142.77 150.22 142.62 150.55Q142.32 150.63 142.00 150.65Q141.48 150.73 141.09 151.09Q140.74 151.20 140.59 151.55Q140.30 151.62 140.00 151.62Q139.47 151.70 139.07 152.07Q138.71 152.19 138.57 152.54Q138.29 152.60 138.00 152.60Q137.46 152.68 137.06 153.06Q136.19 153.68 135.54 154.53Q135.27 154.58 135.00 154.57Q134.45 154.66 134.04 155.04Q133.67 155.17 133.54 155.53Q133.12 155.54 132.83 155.85C135.93 149.45 133.00 155.72 135.54 136.51C137.12 124.47 139.09 112.40 141.67 100.53C142.47 96.86 143.26 93.06 144.53 89.51C145.06 88.02 145.59 86.52 146.30 85.11C146.49 84.73 146.82 84.40 147.20 84.21C147.38 84.12 147.58 84.30 147.75 84.40C148.80 84.99 149.84 85.61 150.84 86.28C151.00 86.39 151.11 86.57 151.23 86.72C152.00 87.62 152.76 88.51 153.51 89.41C153.82 89.79 154.11 90.18 154.40 90.57C158.14 95.57 154.95 91.34 159.77 98.17C160.46 99.15 161.21 100.09 161.90 101.07C163.12 102.81 164.31 104.57 165.48 106.35C169.08 111.84 174.61 121.01 177.35 125.59C179.32 128.88 181.23 132.22 183.17 135.53Z" fill="#161a21" transform="scale(1)"/></g><g data-avatar-compiled-surface-layer="cat-ear-left" clip-path="url(#r0-compiled-owner-0)"><g transform="translate(-54.48311705602934 -78)"><g><path data-avatar-compiled-surface-marking="stinky-ear-inner-left" data-avatar-surface-decal="stinky-ear-inner-left" data-avatar-surface-decal-renderer="compiled" d="M141.32 133.59C141.45 132.49 141.44 131.37 141.71 130.30C142.19 128.42 143.15 126.87 144.64 125.63C147.52 123.22 151.96 122.68 155.46 123.85C157.33 124.47 159.06 125.56 160.12 127.27C161.87 130.11 161.42 133.42 160.96 136.53C160.49 139.75 159.64 142.93 158.63 146.02C157.82 148.48 156.88 150.93 155.66 153.22C155.39 153.71 155.12 154.20 154.80 154.65C154.59 154.95 154.25 155.14 154.08 155.45C153.95 155.67 154.00 155.94 153.93 156.18C153.79 156.73 153.58 157.11 153.18 157.49C152.38 157.82 151.89 157.28 151.55 156.58C151.45 156.36 151.44 156.09 151.28 155.91C151.06 155.66 150.71 155.58 150.46 155.36C149.63 154.63 148.79 153.51 148.18 152.63C145.53 148.72 143.53 144.18 142.33 139.61C141.68 137.11 141.64 136.12 141.32 133.59Z" fill="#e8a0a8" fill-opacity="1" transform="translate(54.48311705602934 78) scale(1)"/></g></g></g></g><g data-avatar-entity-part="cat-ear-right" data-avatar-fragment-interaction-area="1840" data-avatar-fragment-interaction-ratio="1" data-avatar-fragment-raw-visible-area="1840" data-avatar-fragment-visible-area="1840" data-avatar-part-geometry="compiled-owner"><g data-avatar-compiled-base-layer="cat-ear-right"><path data-avatar-compiled-base="cat-ear-right" d="M290.17 157.86Q289.84 157.55 289.39 157.54Q289.24 157.20 288.89 157.11Q288.52 156.74 288.00 156.65Q287.72 156.60 287.44 156.54Q286.76 155.72 285.87 155.13Q285.51 154.77 285.00 154.70Q284.69 154.66 284.40 154.56Q283.93 153.96 283.25 153.60Q282.95 153.49 282.75 153.25Q282.45 152.91 282.00 152.85Q281.23 152.61 280.42 152.53Q280.27 152.21 279.92 152.14Q279.52 151.80 279.00 151.76Q278.60 151.78 278.24 151.62Q277.93 151.48 277.74 151.20Q277.43 150.90 277.00 150.90Q276.51 150.95 276.09 150.69Q275.75 150.62 275.59 150.31Q274.80 150.02 274.00 149.76Q270.55 148.31 267.19 146.65Q265.81 146.19 264.51 145.50Q263.73 145.40 263.00 145.10Q262.19 144.86 261.40 144.53Q260.68 144.42 260.00 144.16Q259.17 143.89 258.36 143.55Q257.66 143.41 257.00 143.15Q256.20 142.89 255.44 142.52Q254.70 142.36 254.00 142.09Q253.26 141.84 252.57 141.48Q251.75 141.31 251.00 140.95Q249.54 140.30 248.04 139.73Q247.74 139.64 247.54 139.39Q246.37 139.07 245.25 138.61Q244.95 138.46 244.75 138.20Q244.45 137.85 244.00 137.78Q243.62 137.68 243.24 137.58Q242.70 137.08 242.00 136.85Q241.53 136.60 241.00 136.62Q240.42 136.58 239.83 136.53C242.41 133.01 243.78 129.27 245.77 125.65C248.61 120.49 252.76 113.36 255.62 108.57C258.46 103.83 261.39 99.08 264.57 94.55C266.16 92.30 267.86 89.67 269.87 87.71C270.68 86.92 271.51 86.16 272.38 85.43C272.44 85.37 272.56 85.33 272.63 85.39C273.35 85.99 274.02 86.66 274.66 87.35C274.88 87.58 275.05 87.85 275.20 88.13C275.38 88.46 275.52 88.81 275.66 89.15C276.44 91.16 277.22 93.16 277.95 95.18C278.83 97.58 279.36 99.60 280.02 102.12C280.89 105.51 281.17 107.29 282.00 111.10C282.52 113.43 283.09 115.75 283.58 118.09C285.03 125.04 287.22 138.15 288.00 143.08C288.79 147.99 289.45 152.93 290.17 157.86Z" fill="#161a21" transform="scale(1)"/></g><g data-avatar-compiled-surface-layer="cat-ear-right" clip-path="url(#r0-compiled-owner-1)"><g transform="translate(56.8250719571759 -78)"><g><path data-avatar-compiled-surface-marking="stinky-ear-inner-right" data-avatar-surface-decal="stinky-ear-inner-right" data-avatar-surface-decal-renderer="compiled" d="M256.99 129.86C258.05 127.32 257.95 126.53 260.22 124.87C261.77 123.73 263.70 123.20 265.59 123.07C270.22 122.75 275.66 125.01 277.00 129.84C277.84 132.90 276.91 135.91 275.89 138.78C274.32 143.25 271.96 147.56 269.02 151.28C268.37 152.11 267.40 153.24 266.54 153.92C266.28 154.13 265.91 154.20 265.67 154.44C265.50 154.60 265.48 154.87 265.36 155.08C265.09 155.55 264.80 155.83 264.33 156.07C263.48 156.13 263.12 155.46 262.94 154.70C262.88 154.47 262.93 154.21 262.82 154.00C262.65 153.69 262.31 153.51 262.11 153.23C261.47 152.32 260.83 150.94 260.41 149.95C258.18 144.61 256.74 138.58 256.79 132.77C256.80 131.80 256.92 130.83 256.99 129.86Z" fill="#e8a0a8" fill-opacity="1" transform="translate(-56.8250719571759 78) scale(1)"/></g></g></g></g><g data-avatar-entity-part="cat-head" data-avatar-fragment-interaction-area="27778" data-avatar-fragment-interaction-ratio="1" data-avatar-fragment-raw-visible-area="27778" data-avatar-fragment-visible-area="27778" data-avatar-part-geometry="compiled-owner"><g data-avatar-compiled-base-layer="cat-head"><path data-avatar-compiled-base="cat-head" d="M239.83 136.53Q240.42 136.58 241.00 136.62Q241.53 136.60 242.00 136.85Q242.70 137.08 243.24 137.58Q243.62 137.68 244.00 137.78Q244.45 137.85 244.75 138.20Q244.95 138.46 245.25 138.61Q246.37 139.07 247.54 139.39Q247.74 139.64 248.04 139.73Q249.54 140.30 251.00 140.95Q251.75 141.31 252.57 141.48Q253.26 141.84 254.00 142.09Q254.70 142.36 255.44 142.52Q256.20 142.89 257.00 143.15Q257.66 143.41 258.36 143.55Q259.17 143.89 260.00 144.16Q260.68 144.42 261.40 144.53Q262.19 144.86 263.00 145.10Q263.73 145.40 264.51 145.50Q265.81 146.19 267.19 146.65Q270.55 148.31 274.00 149.76Q274.80 150.02 275.59 150.31Q275.75 150.62 276.09 150.69Q276.51 150.95 277.00 150.90Q277.43 150.90 277.74 151.20Q277.93 151.48 278.24 151.62Q278.60 151.78 279.00 151.76Q279.52 151.80 279.92 152.14Q280.27 152.21 280.42 152.53Q281.23 152.61 282.00 152.85Q282.45 152.91 282.75 153.25Q282.95 153.49 283.25 153.60Q283.93 153.96 284.40 154.56Q284.69 154.66 285.00 154.70Q285.51 154.77 285.87 155.13Q286.76 155.72 287.44 156.54Q287.72 156.60 288.00 156.65Q288.52 156.74 288.89 157.11Q289.24 157.20 289.39 157.54Q289.84 157.55 290.17 157.86C290.22 158.16 290.09 158.55 290.32 158.75C291.54 159.87 293.10 160.59 294.35 161.68C297.18 164.17 299.98 166.72 302.54 169.48C306.82 174.08 311.64 180.27 314.28 186.10C315.36 188.47 316.42 190.85 317.45 193.24C317.58 193.56 317.69 193.88 317.78 194.21C318.47 196.53 319.15 198.86 319.81 201.20C319.89 201.49 319.95 201.78 319.99 202.07C320.35 204.40 320.69 206.74 321.02 209.07C321.76 214.42 320.90 219.69 320.18 224.96C320.14 225.26 320.09 225.57 320.01 225.87C319.31 228.49 318.72 231.15 317.83 233.72C313.57 246.01 305.27 257.05 295.43 265.40C292.02 268.29 288.46 271.04 284.69 273.44C280.10 276.36 275.37 279.11 270.40 281.33C265.07 283.71 259.41 285.28 253.90 287.21C253.23 287.44 252.46 287.31 251.81 287.58C250.51 288.12 249.29 288.85 247.97 289.34C247.29 289.59 246.56 289.67 245.85 289.78C243.87 290.09 241.87 290.29 239.88 290.58C239.04 290.70 238.81 290.88 238.00 290.90C236.33 290.92 234.67 290.84 233.00 290.90C231.99 290.93 231.01 291.33 230.00 291.36C228.33 291.42 226.66 291.28 225.00 291.36C223.95 291.42 223.06 292.19 222.00 292.22C220.50 292.27 219.00 292.11 217.50 292.22C217.22 292.24 217.00 292.48 216.76 292.62C216.13 293.01 215.53 293.45 214.89 293.83C214.61 293.99 214.33 294.23 214.00 294.24C210.34 294.37 206.64 294.70 203.00 294.24C201.25 294.02 199.83 292.60 198.10 292.25C196.44 291.91 194.69 292.41 193.00 292.22C191.97 292.11 191.03 291.47 190.00 291.36C188.02 291.16 186.02 291.45 184.04 291.32C183.05 291.26 182.08 290.93 181.10 290.79C180.24 290.66 173.89 290.02 172.02 289.38C164.51 286.81 156.89 284.48 149.61 281.30C144.57 279.09 139.81 276.23 135.17 273.28C122.93 265.49 112.26 254.60 105.58 241.65C104.29 239.15 103.34 236.49 102.25 233.89C102.11 233.57 102.01 233.23 101.91 232.89C100.45 227.69 98.85 222.48 98.85 217.00C98.86 211.72 98.74 206.37 100.19 201.20C101.75 195.66 103.21 190.14 106.23 185.14C107.74 182.65 109.26 180.16 110.81 177.69C110.92 177.50 111.08 177.34 111.22 177.17C117.32 169.68 117.99 168.22 125.69 161.70C127.87 159.86 130.42 158.49 132.63 156.68C132.85 156.50 132.77 156.13 132.83 155.85Q133.12 155.54 133.54 155.53Q133.67 155.17 134.04 155.04Q134.45 154.66 135.00 154.57Q135.27 154.58 135.54 154.53Q136.19 153.68 137.06 153.06Q137.46 152.68 138.00 152.60Q138.29 152.60 138.57 152.54Q138.71 152.19 139.07 152.07Q139.47 151.70 140.00 151.62Q140.30 151.62 140.59 151.55Q140.74 151.20 141.09 151.09Q141.48 150.73 142.00 150.65Q142.32 150.63 142.62 150.55Q142.77 150.22 143.12 150.12Q143.49 149.76 144.00 149.69Q144.34 149.65 144.66 149.56Q144.86 149.30 145.16 149.16Q145.51 148.81 146.00 148.73Q146.35 148.66 146.69 148.57Q146.93 148.37 147.19 148.19Q147.53 147.87 148.00 147.85Q148.44 147.88 148.83 147.66Q149.18 147.56 149.33 147.22Q149.60 146.92 150.00 146.90Q150.48 146.93 150.90 146.68Q151.24 146.62 151.40 146.30Q152.23 146.20 153.00 145.86Q153.34 145.79 153.57 145.54Q153.72 145.21 154.07 145.13Q154.50 144.87 155.00 144.93Q155.51 145.05 156.00 144.86Q156.35 144.77 156.64 144.56Q156.82 144.26 157.14 144.15Q157.53 143.90 158.00 143.96Q158.51 144.10 159.00 143.91Q159.39 143.79 159.74 143.60Q160.03 143.45 160.24 143.19Q160.59 142.95 161.00 143.02Q161.52 143.12 162.00 142.91Q162.38 142.79 162.71 142.58Q162.96 142.39 163.21 142.19Q163.57 141.94 164.00 142.00Q164.52 142.08 165.00 141.86Q165.34 141.77 165.63 141.55Q165.80 141.26 166.13 141.17Q166.49 140.82 167.00 140.76Q167.82 140.65 168.64 140.56Q168.81 140.25 169.14 140.14Q169.50 139.79 170.00 139.72Q170.51 139.58 171.00 139.76Q171.39 139.87 171.75 139.67Q172.03 139.41 172.25 139.10Q172.55 138.75 173.00 138.67Q173.50 138.62 174.00 138.72Q174.35 138.84 174.67 138.64Q174.82 138.27 175.17 138.09Q175.51 137.73 176.00 137.65Q176.30 137.65 176.59 137.56Q176.73 137.21 177.09 137.09Q177.47 136.72 178.00 136.64Q179.77 136.57 181.55 136.53Q181.69 136.17 182.05 136.05Q182.54 135.64 183.17 135.53C183.44 135.83 183.60 136.33 184.00 136.43C184.17 136.47 187.36 136.48 188.25 136.33C188.57 136.28 188.85 136.11 189.17 136.06C189.44 136.01 189.72 136.02 190.00 136.01C191.67 136.00 193.33 136.09 195.00 136.01C196.10 135.97 196.89 135.25 198.00 135.23C199.33 135.21 200.67 135.30 202.00 135.23C203.48 135.15 203.73 134.51 205.21 133.88C205.45 133.77 205.73 133.76 206.00 133.76C209.67 133.72 213.33 133.75 217.00 133.76C217.30 133.76 217.61 133.71 217.89 133.79C218.90 134.09 219.86 134.54 220.85 134.89C221.23 135.02 221.60 135.21 222.00 135.23C223.66 135.32 225.34 135.08 227.00 135.23C227.99 135.32 228.92 135.76 229.89 135.95C230.25 136.02 230.63 136.01 231.00 136.01C232.63 136.03 234.26 135.89 235.88 136.02C236.93 136.10 237.93 136.49 238.97 136.62C239.26 136.66 239.55 136.56 239.83 136.53Z" fill="#161a21" transform="scale(1)"/></g><g data-avatar-compiled-surface-layer="cat-head" clip-path="url(#r0-compiled-owner-2)"><g transform="translate(0 12)"><g><path data-avatar-compiled-surface-marking="stinky-muzzle" data-avatar-surface-decal="stinky-muzzle" data-avatar-surface-decal-renderer="compiled" d="M199.22 216.72C195.29 216.97 194.55 216.86 190.63 217.78C189.11 218.14 187.62 218.58 186.14 219.09C174.37 223.16 162.44 232.43 160.87 245.61C160.67 247.28 160.64 248.98 160.74 250.67C160.95 253.96 161.74 257.19 162.98 260.24C164.20 263.21 165.68 265.63 167.77 268.07C176.63 278.46 191.20 282.00 204.32 282.00C207.92 282.00 211.53 281.74 215.08 281.13C219.63 280.35 220.26 279.96 224.56 278.52C225.93 277.87 227.34 277.31 228.66 276.56C231.04 275.21 233.48 273.35 235.35 271.34C241.66 264.55 243.26 254.40 240.95 245.61C239.66 240.73 237.00 236.32 233.66 232.58C227.02 225.13 217.56 220.02 207.89 217.78C203.91 216.86 203.21 216.97 199.22 216.72Z" fill="#f7f5ee" fill-opacity="1" transform="translate(0 -12) scale(1)"/><path data-avatar-compiled-surface-marking="stinky-mouth-l" data-avatar-surface-decal="stinky-mouth-l" data-avatar-surface-decal-renderer="compiled" d="M200.49 239.16C200.33 241.22 198.82 242.47 196.93 243.10C196.28 243.31 195.59 243.46 194.92 243.53C191.79 243.85 187.40 242.75 186.82 239.16C186.98 237.10 188.48 235.86 190.37 235.22C191.02 235.00 191.71 234.86 192.39 234.79C195.51 234.47 199.91 235.57 200.49 239.16Z" fill="#d97f8c" fill-opacity="1" transform="translate(0 -12) scale(1)"/><path data-avatar-compiled-surface-marking="stinky-mouth-l-carve" data-avatar-surface-decal="stinky-mouth-l-carve" data-avatar-surface-decal-renderer="compiled" d="M199.29 236.30C199.15 238.52 197.58 239.97 195.47 240.51C192.85 241.17 189.33 240.31 188.11 237.67C187.83 237.08 187.86 236.93 187.77 236.30C187.81 235.69 187.77 235.53 187.99 234.94C188.57 233.42 190.07 232.48 191.59 232.10C194.21 231.44 197.72 232.30 198.95 234.94C199.22 235.52 199.20 235.68 199.29 236.30Z" fill="#f7f5ee" fill-opacity="1" transform="translate(0 -12) scale(1)"/><path data-avatar-compiled-surface-marking="stinky-mouth-r" data-avatar-surface-decal="stinky-mouth-r" data-avatar-surface-decal-renderer="compiled" d="M212.87 239.16C212.70 241.22 211.17 242.47 209.27 243.10C208.61 243.32 207.92 243.46 207.24 243.53C204.10 243.84 199.64 242.77 199.05 239.16C199.21 237.09 200.74 235.85 202.64 235.22C203.30 235.00 203.98 234.86 204.68 234.79C207.81 234.48 212.28 235.55 212.87 239.16Z" fill="#d97f8c" fill-opacity="1" transform="translate(0 -12) scale(1)"/><path data-avatar-compiled-surface-marking="stinky-mouth-r-carve" data-avatar-surface-decal="stinky-mouth-r-carve" data-avatar-surface-decal-renderer="compiled" d="M211.65 236.30C211.62 236.92 211.65 237.08 211.42 237.67C210.84 239.19 209.32 240.13 207.80 240.51C205.16 241.16 201.60 240.33 200.35 237.67C200.08 237.08 200.11 236.93 200.01 236.30C200.05 235.69 200.02 235.53 200.24 234.94C200.83 233.42 202.34 232.48 203.87 232.10C206.50 231.45 210.06 232.28 211.31 234.94C211.59 235.52 211.56 235.68 211.65 236.30Z" fill="#f7f5ee" fill-opacity="1" transform="translate(0 -12) scale(1)"/><path data-avatar-compiled-surface-marking="stinky-nose" data-avatar-surface-decal="stinky-nose" data-avatar-surface-decal-renderer="compiled" d="M208.98 233.20C208.75 233.56 208.60 233.98 208.28 234.26C207.40 235.02 205.79 235.45 204.74 235.67C201.45 236.36 197.82 236.35 194.53 235.67C193.45 235.45 191.84 235.01 190.92 234.26C190.59 233.98 190.41 233.56 190.16 233.20C190.21 232.88 190.21 232.54 190.30 232.22C190.77 230.65 192.07 229.34 193.27 228.29C193.91 227.73 194.66 227.18 195.38 226.72C195.94 226.36 196.66 225.96 197.28 225.71C197.52 225.62 197.78 225.60 198.01 225.49C198.10 225.45 198.13 225.33 198.20 225.26C198.50 224.98 198.91 224.85 199.32 224.85C199.72 224.85 200.14 224.98 200.44 225.26C200.52 225.33 200.55 225.45 200.64 225.49C200.87 225.60 201.14 225.62 201.38 225.71C202.03 225.96 202.75 226.36 203.34 226.72C204.10 227.19 204.86 227.72 205.55 228.29C206.82 229.33 208.22 230.63 208.78 232.22C208.89 232.54 208.91 232.88 208.98 233.20Z" fill="#e8a0a8" fill-opacity="1" transform="translate(0 -12) scale(1)"/><g data-avatar-face-surface-layer="cat-head"><path data-avatar-face-feature="eye-0" d="M 170.715 188.665 L 173.048 188.887 L 175.288 189.545 L 177.349 190.613 L 179.151 192.051 L 180.627 193.803 L 181.721 195.801 L 182.392 197.970 L 182.613 200.225 L 182.612 200.669 L 182.611 201.112 L 182.611 201.556 L 182.611 202.000 L 182.611 202.444 L 182.611 202.888 L 182.612 203.331 L 182.613 203.775 L 182.392 206.030 L 181.721 208.199 L 180.627 210.197 L 179.151 211.949 L 177.349 213.387 L 175.288 214.455 L 173.048 215.113 L 170.715 215.335 L 170.715 215.335 L 170.715 215.335 L 170.715 215.335 L 170.715 215.335 L 170.715 215.335 L 170.715 215.335 L 170.715 215.335 L 170.715 215.335 L 168.376 215.113 L 166.123 214.455 L 164.042 213.387 L 162.215 211.949 L 160.711 210.197 L 159.591 208.199 L 158.898 206.030 L 158.659 203.775 L 158.658 203.331 L 158.657 202.888 L 158.656 202.444 L 158.656 202.000 L 158.656 201.556 L 158.657 201.112 L 158.658 200.669 L 158.659 200.225 L 158.898 197.970 L 159.591 195.801 L 160.711 193.803 L 162.215 192.051 L 164.042 190.613 L 166.123 189.545 L 168.376 188.887 L 170.715 188.665 L 170.715 188.665 L 170.715 188.665 L 170.715 188.665 L 170.715 188.665 L 170.715 188.665 L 170.715 188.665 L 170.715 188.665 Z" fill="#c8952b"/><path data-avatar-face-feature="eye-1" d="M 228.618 188.665 L 231.081 188.887 L 233.444 189.545 L 235.618 190.613 L 237.519 192.051 L 239.077 193.803 L 240.231 195.801 L 240.938 197.970 L 241.172 200.225 L 241.170 200.669 L 241.169 201.112 L 241.169 201.556 L 241.169 202.000 L 241.169 202.444 L 241.169 202.888 L 241.170 203.331 L 241.172 203.775 L 240.938 206.030 L 240.231 208.199 L 239.077 210.197 L 237.519 211.949 L 235.618 213.387 L 233.444 214.455 L 231.081 215.113 L 228.618 215.335 L 228.618 215.335 L 228.618 215.335 L 228.618 215.335 L 228.618 215.335 L 228.618 215.335 L 228.618 215.335 L 228.618 215.335 L 228.618 215.335 L 226.151 215.113 L 223.774 214.455 L 221.580 213.387 L 219.653 211.949 L 218.069 210.197 L 216.889 208.199 L 216.159 206.030 L 215.908 203.775 L 215.907 203.331 L 215.906 202.888 L 215.906 202.444 L 215.905 202.000 L 215.906 201.556 L 215.906 201.112 L 215.907 200.669 L 215.908 200.225 L 216.159 197.970 L 216.889 195.801 L 218.069 193.803 L 219.653 192.051 L 221.580 190.613 L 223.774 189.545 L 226.151 188.887 L 228.618 188.665 L 228.618 188.665 L 228.618 188.665 L 228.618 188.665 L 228.618 188.665 L 228.618 188.665 L 228.618 188.665 L 228.618 188.665 Z" fill="#c8952b"/><path data-avatar-eye-highlight="eye-highlight-0" data-avatar-face-feature="eye-highlight-0" clip-path="url(#r0-entity-eye-0-highlight-clip)" d="M 172.734 202.000 L 172.698 203.780 L 172.592 205.517 L 172.423 207.166 L 172.197 208.689 L 171.928 210.047 L 171.630 211.207 L 171.320 212.140 L 171.019 212.823 L 170.754 213.240 L 170.577 213.380 L 170.401 213.240 L 170.136 212.823 L 169.835 212.140 L 169.525 211.207 L 169.227 210.047 L 168.958 208.689 L 168.732 207.166 L 168.563 205.517 L 168.457 203.780 L 168.421 202.000 L 168.457 200.220 L 168.563 198.483 L 168.732 196.834 L 168.958 195.311 L 169.227 193.953 L 169.525 192.793 L 169.835 191.860 L 170.136 191.177 L 170.401 190.760 L 170.577 190.620 L 170.754 190.760 L 171.019 191.177 L 171.320 191.860 L 171.630 192.793 L 171.928 193.953 L 172.197 195.311 L 172.423 196.834 L 172.592 198.483 L 172.698 200.220 Z" fill="#0b0d11" fill-opacity="1" data-stinky-slit="M 172.734 202.000 L 172.698 203.780 L 172.592 205.517 L 172.423 207.166 L 172.197 208.689 L 171.928 210.047 L 171.630 211.207 L 171.320 212.140 L 171.019 212.823 L 170.754 213.240 L 170.577 213.380 L 170.401 213.240 L 170.136 212.823 L 169.835 212.140 L 169.525 211.207 L 169.227 210.047 L 168.958 208.689 L 168.732 207.166 L 168.563 205.517 L 168.457 203.780 L 168.421 202.000 L 168.457 200.220 L 168.563 198.483 L 168.732 196.834 L 168.958 195.311 L 169.227 193.953 L 169.525 192.793 L 169.835 191.860 L 170.136 191.177 L 170.401 190.760 L 170.577 190.620 L 170.754 190.760 L 171.019 191.177 L 171.320 191.860 L 171.630 192.793 L 171.928 193.953 L 172.197 195.311 L 172.423 196.834 L 172.592 198.483 L 172.698 200.220 Z"/><path data-avatar-eye-highlight="eye-highlight-1" data-avatar-face-feature="eye-highlight-1" clip-path="url(#r0-entity-eye-1-highlight-clip)" d="M 230.754 202.000 L 230.717 203.877 L 230.605 205.708 L 230.426 207.447 L 230.189 209.053 L 229.905 210.484 L 229.590 211.707 L 229.264 212.691 L 228.947 213.411 L 228.667 213.851 L 228.481 213.999 L 228.295 213.851 L 228.015 213.411 L 227.698 212.691 L 227.372 211.707 L 227.057 210.484 L 226.773 209.053 L 226.536 207.447 L 226.357 205.708 L 226.245 203.877 L 226.208 202.000 L 226.245 200.123 L 226.357 198.292 L 226.536 196.553 L 226.773 194.947 L 227.057 193.516 L 227.372 192.293 L 227.698 191.309 L 228.015 190.589 L 228.295 190.149 L 228.481 190.001 L 228.667 190.149 L 228.947 190.589 L 229.264 191.309 L 229.590 192.293 L 229.905 193.516 L 230.189 194.947 L 230.426 196.553 L 230.605 198.292 L 230.717 200.123 Z" fill="#0b0d11" fill-opacity="1" data-stinky-slit="M 230.754 202.000 L 230.717 203.877 L 230.605 205.708 L 230.426 207.447 L 230.189 209.053 L 229.905 210.484 L 229.590 211.707 L 229.264 212.691 L 228.947 213.411 L 228.667 213.851 L 228.481 213.999 L 228.295 213.851 L 228.015 213.411 L 227.698 212.691 L 227.372 211.707 L 227.057 210.484 L 226.773 209.053 L 226.536 207.447 L 226.357 205.708 L 226.245 203.877 L 226.208 202.000 L 226.245 200.123 L 226.357 198.292 L 226.536 196.553 L 226.773 194.947 L 227.057 193.516 L 227.372 192.293 L 227.698 191.309 L 228.015 190.589 L 228.295 190.149 L 228.481 190.001 L 228.667 190.149 L 228.947 190.589 L 229.264 191.309 L 229.590 192.293 L 229.905 193.516 L 230.189 194.947 L 230.426 196.553 L 230.605 198.292 L 230.717 200.123 Z"/></g></g></g></g></g></g></g></g></g></g></svg>